<mxfile host="Electron" modified="2024-04-26T08:47:43.932Z" agent="Mozilla/5.0 (Windows NT 10.0; Win64; x64) AppleWebKit/537.36 (KHTML, like Gecko) draw.io/24.0.4 Chrome/120.0.6099.109 Electron/28.1.0 Safari/537.36" etag="42oz_CxKRq8k5ntDeTVU" version="24.0.4" type="device">
  <diagram id="C5RBs43oDa-KdzZeNtuy" name="Page-1">
    <mxGraphModel dx="378" dy="112" grid="1" gridSize="11" guides="0" tooltips="1" connect="1" arrows="1" fold="1" page="0" pageScale="1" pageWidth="5000" pageHeight="4000" math="0" shadow="0">
      <root>
        <mxCell id="WIyWlLk6GJQsqaUBKTNV-0" />
        <mxCell id="WIyWlLk6GJQsqaUBKTNV-1" parent="WIyWlLk6GJQsqaUBKTNV-0" />
        <mxCell id="vqfMq5YI1HX7amYcBREN-16" value="&lt;b style=&quot;font-size: 16px;&quot;&gt;HOCVIEN&lt;/b&gt;" style="rounded=0;whiteSpace=wrap;html=1;fontSize=16;" parent="WIyWlLk6GJQsqaUBKTNV-1" vertex="1">
          <mxGeometry x="2090.5" y="1546" width="120" height="60" as="geometry" />
        </mxCell>
        <mxCell id="vqfMq5YI1HX7amYcBREN-20" value="&lt;b style=&quot;font-size: 16px;&quot;&gt;NHOMHOC&lt;/b&gt;" style="rounded=0;whiteSpace=wrap;html=1;fontSize=16;" parent="WIyWlLk6GJQsqaUBKTNV-1" vertex="1">
          <mxGeometry x="2849" y="1857" width="120" height="60" as="geometry" />
        </mxCell>
        <mxCell id="vqfMq5YI1HX7amYcBREN-22" value="&lt;b style=&quot;font-size: 16px;&quot;&gt;LOPHOC&lt;/b&gt;" style="rounded=0;whiteSpace=wrap;html=1;fontSize=16;" parent="WIyWlLk6GJQsqaUBKTNV-1" vertex="1">
          <mxGeometry x="2586" y="934" width="120" height="60" as="geometry" />
        </mxCell>
        <mxCell id="vqfMq5YI1HX7amYcBREN-23" value="&lt;b style=&quot;font-size: 16px;&quot;&gt;KHOAHOC&lt;/b&gt;" style="rounded=0;whiteSpace=wrap;html=1;fontSize=16;" parent="WIyWlLk6GJQsqaUBKTNV-1" vertex="1">
          <mxGeometry x="1815" y="934" width="120" height="60" as="geometry" />
        </mxCell>
        <mxCell id="vqfMq5YI1HX7amYcBREN-24" value="&lt;b style=&quot;font-size: 16px;&quot;&gt;GIAOVIEN&lt;/b&gt;" style="rounded=0;whiteSpace=wrap;html=1;fontSize=16;" parent="WIyWlLk6GJQsqaUBKTNV-1" vertex="1">
          <mxGeometry x="1595" y="2161" width="120" height="60" as="geometry" />
        </mxCell>
        <mxCell id="vqfMq5YI1HX7amYcBREN-25" value="&lt;b style=&quot;font-size: 16px;&quot;&gt;TAIKHOAN&lt;/b&gt;&lt;span style=&quot;color: rgba(0, 0, 0, 0); font-family: monospace; font-size: 0px; text-align: start; text-wrap: nowrap;&quot;&gt;%3CmxGraphModel%3E%3Croot%3E%3CmxCell%20id%3D%220%22%2F%3E%3CmxCell%20id%3D%221%22%20parent%3D%220%22%2F%3E%3CmxCell%20id%3D%222%22%20value%3D%22%26lt%3Bb%20style%3D%26quot%3Bfont-size%3A%2016px%3B%26quot%3B%26gt%3BHOCVIEN%26lt%3B%2Fb%26gt%3B%22%20style%3D%22rounded%3D0%3BwhiteSpace%3Dwrap%3Bhtml%3D1%3BfontSize%3D16%3B%22%20vertex%3D%221%22%20parent%3D%221%22%3E%3CmxGeometry%20x%3D%221221%22%20y%3D%22341%22%20width%3D%22120%22%20height%3D%2260%22%20as%3D%22geometry%22%2F%3E%3C%2FmxCell%3E%3C%2Froot%3E%3C%2FmxGraphModel%3E&lt;/span&gt;" style="rounded=0;whiteSpace=wrap;html=1;fontSize=16;" parent="WIyWlLk6GJQsqaUBKTNV-1" vertex="1">
          <mxGeometry x="1606.5" y="1738" width="120" height="60" as="geometry" />
        </mxCell>
        <mxCell id="vqfMq5YI1HX7amYcBREN-27" value="&lt;b style=&quot;font-size: 16px;&quot;&gt;PHONGHOC&lt;/b&gt;" style="rounded=0;whiteSpace=wrap;html=1;fontSize=16;" parent="WIyWlLk6GJQsqaUBKTNV-1" vertex="1">
          <mxGeometry x="3680.25" y="1372" width="120" height="60" as="geometry" />
        </mxCell>
        <mxCell id="vqfMq5YI1HX7amYcBREN-28" value="&lt;b style=&quot;font-size: 16px;&quot;&gt;CAHOC&lt;/b&gt;" style="rounded=0;whiteSpace=wrap;html=1;fontSize=16;" parent="WIyWlLk6GJQsqaUBKTNV-1" vertex="1">
          <mxGeometry x="3680" y="1841" width="120" height="60" as="geometry" />
        </mxCell>
        <mxCell id="vqfMq5YI1HX7amYcBREN-33" value="&lt;font style=&quot;font-size: 16px;&quot;&gt;&lt;b&gt;PhuTrach&lt;/b&gt;&lt;/font&gt;" style="rhombus;whiteSpace=wrap;html=1;spacing=2;" parent="WIyWlLk6GJQsqaUBKTNV-1" vertex="1">
          <mxGeometry x="660" y="1485" width="187" height="80" as="geometry" />
        </mxCell>
        <mxCell id="vqfMq5YI1HX7amYcBREN-34" value="&lt;span style=&quot;font-size: 16px;&quot;&gt;&lt;b&gt;Thuoc&lt;/b&gt;&lt;/span&gt;" style="rhombus;whiteSpace=wrap;html=1;spacing=2;" parent="WIyWlLk6GJQsqaUBKTNV-1" vertex="1">
          <mxGeometry x="2189" y="924" width="187" height="80" as="geometry" />
        </mxCell>
        <mxCell id="vqfMq5YI1HX7amYcBREN-35" value="&lt;span style=&quot;font-size: 16px;&quot;&gt;&lt;b&gt;Gom&lt;/b&gt;&lt;/span&gt;" style="rhombus;whiteSpace=wrap;html=1;spacing=2;" parent="WIyWlLk6GJQsqaUBKTNV-1" vertex="1">
          <mxGeometry x="3025" y="1221" width="110" height="80" as="geometry" />
        </mxCell>
        <mxCell id="vqfMq5YI1HX7amYcBREN-37" value="&lt;span style=&quot;font-size: 16px;&quot;&gt;&lt;b&gt;HocTheo&lt;/b&gt;&lt;/span&gt;" style="rhombus;whiteSpace=wrap;html=1;spacing=2;" parent="WIyWlLk6GJQsqaUBKTNV-1" vertex="1">
          <mxGeometry x="3570" y="1597" width="110" height="80" as="geometry" />
        </mxCell>
        <mxCell id="vqfMq5YI1HX7amYcBREN-39" value="&lt;span style=&quot;font-size: 16px;&quot;&gt;&lt;b&gt;DangKi&lt;/b&gt;&lt;/span&gt;" style="rhombus;whiteSpace=wrap;html=1;spacing=2;" parent="WIyWlLk6GJQsqaUBKTNV-1" vertex="1">
          <mxGeometry x="2057" y="1320" width="187" height="80" as="geometry" />
        </mxCell>
        <mxCell id="vqfMq5YI1HX7amYcBREN-40" value="&lt;span style=&quot;font-size: 16px;&quot;&gt;&lt;b&gt;Day&lt;/b&gt;&lt;/span&gt;" style="rhombus;whiteSpace=wrap;html=1;spacing=2;" parent="WIyWlLk6GJQsqaUBKTNV-1" vertex="1">
          <mxGeometry x="2387" y="2365" width="110" height="80" as="geometry" />
        </mxCell>
        <mxCell id="vqfMq5YI1HX7amYcBREN-77" value="&lt;font style=&quot;font-size: 16px;&quot;&gt;&lt;b&gt;DuocCap&lt;/b&gt;&lt;/font&gt;&lt;span style=&quot;color: rgba(0, 0, 0, 0); font-family: monospace; font-size: 0px; text-align: start; text-wrap: nowrap;&quot;&gt;%3CmxGraphModel%3E%3Croot%3E%3CmxCell%20id%3D%220%22%2F%3E%3CmxCell%20id%3D%221%22%20parent%3D%220%22%2F%3E%3CmxCell%20id%3D%222%22%20value%3D%22%26lt%3Bfont%20style%3D%26quot%3Bfont-size%3A%2016px%3B%26quot%3B%26gt%3B%26lt%3Bb%26gt%3BPhuTrach%26lt%3B%2Fb%26gt%3B%26lt%3B%2Ffont%26gt%3B%22%20style%3D%22rhombus%3BwhiteSpace%3Dwrap%3Bhtml%3D1%3Bspacing%3D2%3B%22%20vertex%3D%221%22%20parent%3D%221%22%3E%3CmxGeometry%20x%3D%221925%22%20y%3D%221254%22%20width%3D%22187%22%20height%3D%2280%22%20as%3D%22geometry%22%2F%3E%3C%2FmxCell%3E%3C%2Froot%3E%3C%2FmxGraphModel%3E&lt;/span&gt;" style="rhombus;whiteSpace=wrap;html=1;spacing=2;" parent="WIyWlLk6GJQsqaUBKTNV-1" vertex="1">
          <mxGeometry x="1672" y="1546" width="187" height="80" as="geometry" />
        </mxCell>
        <mxCell id="vqfMq5YI1HX7amYcBREN-78" value="&lt;font style=&quot;font-size: 16px;&quot;&gt;&lt;b&gt;DuocCap&lt;/b&gt;&lt;/font&gt;" style="rhombus;whiteSpace=wrap;html=1;spacing=2;" parent="WIyWlLk6GJQsqaUBKTNV-1" vertex="1">
          <mxGeometry x="1584" y="1947" width="187" height="80" as="geometry" />
        </mxCell>
        <mxCell id="vqfMq5YI1HX7amYcBREN-91" value="&lt;span style=&quot;font-size: 16px;&quot;&gt;&lt;b&gt;BangDiemDanh&lt;/b&gt;&lt;/span&gt;" style="rhombus;whiteSpace=wrap;html=1;spacing=2;" parent="WIyWlLk6GJQsqaUBKTNV-1" vertex="1">
          <mxGeometry x="2590" y="1491" width="187" height="80" as="geometry" />
        </mxCell>
        <mxCell id="vqfMq5YI1HX7amYcBREN-114" value="&lt;font style=&quot;font-size: 20px;&quot;&gt;&lt;b&gt;1&lt;/b&gt;&lt;/font&gt;" style="text;html=1;align=center;verticalAlign=middle;whiteSpace=wrap;rounded=0;" parent="WIyWlLk6GJQsqaUBKTNV-1" vertex="1">
          <mxGeometry x="2879" y="1067" width="60" height="30" as="geometry" />
        </mxCell>
        <mxCell id="vqfMq5YI1HX7amYcBREN-116" value="&lt;font style=&quot;font-size: 20px;&quot;&gt;&lt;b&gt;n&lt;/b&gt;&lt;/font&gt;" style="text;html=1;align=center;verticalAlign=middle;whiteSpace=wrap;rounded=0;" parent="WIyWlLk6GJQsqaUBKTNV-1" vertex="1">
          <mxGeometry x="2987" y="1571" width="60" height="30" as="geometry" />
        </mxCell>
        <mxCell id="19zakmdn4GK2tteWEvWS-1" value="&lt;span style=&quot;font-size: 20px;&quot;&gt;&lt;b&gt;n&lt;/b&gt;&lt;/span&gt;" style="text;html=1;align=center;verticalAlign=middle;whiteSpace=wrap;rounded=0;" parent="WIyWlLk6GJQsqaUBKTNV-1" vertex="1">
          <mxGeometry x="2453" y="934" width="60" height="30" as="geometry" />
        </mxCell>
        <mxCell id="19zakmdn4GK2tteWEvWS-5" value="&lt;font style=&quot;font-size: 20px;&quot;&gt;&lt;b&gt;n&lt;/b&gt;&lt;/font&gt;" style="text;html=1;align=center;verticalAlign=middle;whiteSpace=wrap;rounded=0;" parent="WIyWlLk6GJQsqaUBKTNV-1" vertex="1">
          <mxGeometry x="1991" y="1166" width="60" height="30" as="geometry" />
        </mxCell>
        <mxCell id="19zakmdn4GK2tteWEvWS-6" value="&lt;font style=&quot;font-size: 20px;&quot;&gt;&lt;b&gt;n&lt;/b&gt;&lt;/font&gt;" style="text;html=1;align=center;verticalAlign=middle;whiteSpace=wrap;rounded=0;" parent="WIyWlLk6GJQsqaUBKTNV-1" vertex="1">
          <mxGeometry x="2332" y="1166" width="60" height="30" as="geometry" />
        </mxCell>
        <mxCell id="19zakmdn4GK2tteWEvWS-7" value="&lt;font style=&quot;font-size: 20px;&quot;&gt;&lt;b&gt;n&lt;/b&gt;&lt;/font&gt;" style="text;html=1;align=center;verticalAlign=middle;whiteSpace=wrap;rounded=0;" parent="WIyWlLk6GJQsqaUBKTNV-1" vertex="1">
          <mxGeometry x="2134" y="1430" width="60" height="30" as="geometry" />
        </mxCell>
        <mxCell id="19zakmdn4GK2tteWEvWS-9" value="&lt;font style=&quot;font-size: 20px;&quot;&gt;&lt;b&gt;n&lt;/b&gt;&lt;/font&gt;" style="text;html=1;align=center;verticalAlign=middle;whiteSpace=wrap;rounded=0;" parent="WIyWlLk6GJQsqaUBKTNV-1" vertex="1">
          <mxGeometry x="3152" y="1598" width="60" height="30" as="geometry" />
        </mxCell>
        <mxCell id="19zakmdn4GK2tteWEvWS-10" value="&lt;font style=&quot;font-size: 20px;&quot;&gt;&lt;b&gt;1&lt;/b&gt;&lt;/font&gt;" style="text;html=1;align=center;verticalAlign=middle;whiteSpace=wrap;rounded=0;" parent="WIyWlLk6GJQsqaUBKTNV-1" vertex="1">
          <mxGeometry x="3630" y="1505" width="60" height="30" as="geometry" />
        </mxCell>
        <mxCell id="19zakmdn4GK2tteWEvWS-11" value="&lt;font style=&quot;font-size: 20px;&quot;&gt;&lt;b&gt;1&lt;/b&gt;&lt;/font&gt;" style="text;html=1;align=center;verticalAlign=middle;whiteSpace=wrap;rounded=0;" parent="WIyWlLk6GJQsqaUBKTNV-1" vertex="1">
          <mxGeometry x="3641" y="1760" width="60" height="30" as="geometry" />
        </mxCell>
        <mxCell id="19zakmdn4GK2tteWEvWS-22" value="&lt;font style=&quot;font-size: 20px;&quot;&gt;&lt;b&gt;n&lt;/b&gt;&lt;/font&gt;" style="text;html=1;align=center;verticalAlign=middle;whiteSpace=wrap;rounded=0;" parent="WIyWlLk6GJQsqaUBKTNV-1" vertex="1">
          <mxGeometry x="2717" y="1705" width="60" height="30" as="geometry" />
        </mxCell>
        <mxCell id="19zakmdn4GK2tteWEvWS-23" value="&lt;font style=&quot;font-size: 20px;&quot;&gt;&lt;b&gt;n&lt;/b&gt;&lt;/font&gt;" style="text;html=1;align=center;verticalAlign=middle;whiteSpace=wrap;rounded=0;" parent="WIyWlLk6GJQsqaUBKTNV-1" vertex="1">
          <mxGeometry x="2365" y="1518" width="60" height="30" as="geometry" />
        </mxCell>
        <mxCell id="19zakmdn4GK2tteWEvWS-24" value="&lt;span style=&quot;font-size: 16px;&quot;&gt;&lt;b&gt;DanhSachNhom&lt;/b&gt;&lt;/span&gt;" style="rhombus;whiteSpace=wrap;html=1;spacing=2;" parent="WIyWlLk6GJQsqaUBKTNV-1" vertex="1">
          <mxGeometry x="2348.5" y="1827" width="187" height="80" as="geometry" />
        </mxCell>
        <mxCell id="19zakmdn4GK2tteWEvWS-28" value="&lt;font style=&quot;font-size: 20px;&quot;&gt;&lt;b&gt;m&lt;/b&gt;&lt;/font&gt;" style="text;html=1;align=center;verticalAlign=middle;whiteSpace=wrap;rounded=0;" parent="WIyWlLk6GJQsqaUBKTNV-1" vertex="1">
          <mxGeometry x="2288.5" y="1727" width="60" height="30" as="geometry" />
        </mxCell>
        <mxCell id="19zakmdn4GK2tteWEvWS-29" value="&lt;font style=&quot;font-size: 20px;&quot;&gt;&lt;b&gt;n&lt;/b&gt;&lt;/font&gt;" style="text;html=1;align=center;verticalAlign=middle;whiteSpace=wrap;rounded=0;" parent="WIyWlLk6GJQsqaUBKTNV-1" vertex="1">
          <mxGeometry x="2657" y="1845" width="60" height="30" as="geometry" />
        </mxCell>
        <mxCell id="19zakmdn4GK2tteWEvWS-30" value="&lt;font style=&quot;font-size: 20px;&quot;&gt;&lt;b&gt;1&lt;/b&gt;&lt;/font&gt;" style="text;html=1;align=center;verticalAlign=middle;whiteSpace=wrap;rounded=0;" parent="WIyWlLk6GJQsqaUBKTNV-1" vertex="1">
          <mxGeometry x="1666.5" y="1661" width="60" height="30" as="geometry" />
        </mxCell>
        <mxCell id="19zakmdn4GK2tteWEvWS-31" value="&lt;font style=&quot;font-size: 20px;&quot;&gt;&lt;b&gt;1&lt;/b&gt;&lt;/font&gt;" style="text;html=1;align=center;verticalAlign=middle;whiteSpace=wrap;rounded=0;" parent="WIyWlLk6GJQsqaUBKTNV-1" vertex="1">
          <mxGeometry x="1925" y="1546" width="60" height="30" as="geometry" />
        </mxCell>
        <mxCell id="19zakmdn4GK2tteWEvWS-32" value="&lt;font style=&quot;font-size: 20px;&quot;&gt;&lt;b&gt;1&lt;/b&gt;&lt;/font&gt;" style="text;html=1;align=center;verticalAlign=middle;whiteSpace=wrap;rounded=0;" parent="WIyWlLk6GJQsqaUBKTNV-1" vertex="1">
          <mxGeometry x="1672" y="1857" width="60" height="30" as="geometry" />
        </mxCell>
        <mxCell id="19zakmdn4GK2tteWEvWS-33" value="&lt;font style=&quot;font-size: 20px;&quot;&gt;&lt;b&gt;1&lt;/b&gt;&lt;/font&gt;" style="text;html=1;align=center;verticalAlign=middle;whiteSpace=wrap;rounded=0;" parent="WIyWlLk6GJQsqaUBKTNV-1" vertex="1">
          <mxGeometry x="1661" y="2068" width="60" height="30" as="geometry" />
        </mxCell>
        <mxCell id="19zakmdn4GK2tteWEvWS-44" value="&lt;font style=&quot;font-size: 20px;&quot;&gt;&lt;b&gt;1&lt;/b&gt;&lt;/font&gt;" style="text;html=1;align=center;verticalAlign=middle;whiteSpace=wrap;rounded=0;" parent="WIyWlLk6GJQsqaUBKTNV-1" vertex="1">
          <mxGeometry x="1997" y="2362" width="60" height="30" as="geometry" />
        </mxCell>
        <mxCell id="19zakmdn4GK2tteWEvWS-45" value="&lt;font style=&quot;font-size: 20px;&quot;&gt;&lt;b&gt;n&lt;/b&gt;&lt;/font&gt;" style="text;html=1;align=center;verticalAlign=middle;whiteSpace=wrap;rounded=0;" parent="WIyWlLk6GJQsqaUBKTNV-1" vertex="1">
          <mxGeometry x="2819" y="2362" width="60" height="30" as="geometry" />
        </mxCell>
        <mxCell id="19zakmdn4GK2tteWEvWS-54" value="Email" style="ellipse;whiteSpace=wrap;html=1;" parent="WIyWlLk6GJQsqaUBKTNV-1" vertex="1">
          <mxGeometry x="1309" y="2237" width="99" height="44" as="geometry" />
        </mxCell>
        <mxCell id="19zakmdn4GK2tteWEvWS-55" value="SDT" style="ellipse;whiteSpace=wrap;html=1;" parent="WIyWlLk6GJQsqaUBKTNV-1" vertex="1">
          <mxGeometry x="1540" y="2383" width="99" height="44" as="geometry" />
        </mxCell>
        <mxCell id="19zakmdn4GK2tteWEvWS-56" value="DiaChi" style="ellipse;whiteSpace=wrap;html=1;" parent="WIyWlLk6GJQsqaUBKTNV-1" vertex="1">
          <mxGeometry x="1411.5" y="2376" width="99" height="44" as="geometry" />
        </mxCell>
        <mxCell id="19zakmdn4GK2tteWEvWS-57" value="GioiTinh" style="ellipse;whiteSpace=wrap;html=1;" parent="WIyWlLk6GJQsqaUBKTNV-1" vertex="1">
          <mxGeometry x="1562" y="2321" width="99" height="44" as="geometry" />
        </mxCell>
        <mxCell id="19zakmdn4GK2tteWEvWS-58" value="NgaySInh" style="ellipse;whiteSpace=wrap;html=1;" parent="WIyWlLk6GJQsqaUBKTNV-1" vertex="1">
          <mxGeometry x="1694" y="2332" width="99" height="44" as="geometry" />
        </mxCell>
        <mxCell id="19zakmdn4GK2tteWEvWS-59" value="HoTen" style="ellipse;whiteSpace=wrap;html=1;" parent="WIyWlLk6GJQsqaUBKTNV-1" vertex="1">
          <mxGeometry x="1430" y="2308" width="99" height="44" as="geometry" />
        </mxCell>
        <mxCell id="19zakmdn4GK2tteWEvWS-60" value="&lt;u&gt;MaGV&lt;/u&gt;" style="ellipse;whiteSpace=wrap;html=1;" parent="WIyWlLk6GJQsqaUBKTNV-1" vertex="1">
          <mxGeometry x="1463" y="2079" width="99" height="44" as="geometry" />
        </mxCell>
        <mxCell id="19zakmdn4GK2tteWEvWS-67" value="MatKhau" style="ellipse;whiteSpace=wrap;html=1;" parent="WIyWlLk6GJQsqaUBKTNV-1" vertex="1">
          <mxGeometry x="1452" y="1694" width="99" height="44" as="geometry" />
        </mxCell>
        <mxCell id="19zakmdn4GK2tteWEvWS-68" value="&lt;u&gt;TenDangNhap&lt;/u&gt;" style="ellipse;whiteSpace=wrap;html=1;" parent="WIyWlLk6GJQsqaUBKTNV-1" vertex="1">
          <mxGeometry x="1510.5" y="1628" width="99" height="44" as="geometry" />
        </mxCell>
        <mxCell id="19zakmdn4GK2tteWEvWS-70" value="&lt;u&gt;MaKH&lt;/u&gt;" style="ellipse;whiteSpace=wrap;html=1;" parent="WIyWlLk6GJQsqaUBKTNV-1" vertex="1">
          <mxGeometry x="1760" y="847" width="99" height="44" as="geometry" />
        </mxCell>
        <mxCell id="19zakmdn4GK2tteWEvWS-71" value="TenKH" style="ellipse;whiteSpace=wrap;html=1;" parent="WIyWlLk6GJQsqaUBKTNV-1" vertex="1">
          <mxGeometry x="1898" y="847" width="99" height="44" as="geometry" />
        </mxCell>
        <mxCell id="19zakmdn4GK2tteWEvWS-73" value="&lt;u&gt;MaNhomHoc&lt;/u&gt;" style="ellipse;whiteSpace=wrap;html=1;" parent="WIyWlLk6GJQsqaUBKTNV-1" vertex="1">
          <mxGeometry x="3055.5" y="1783" width="99" height="44" as="geometry" />
        </mxCell>
        <mxCell id="19zakmdn4GK2tteWEvWS-74" value="SoLuongHocVienToiThieu" style="ellipse;whiteSpace=wrap;html=1;" parent="WIyWlLk6GJQsqaUBKTNV-1" vertex="1">
          <mxGeometry x="3223" y="1727" width="143" height="55" as="geometry" />
        </mxCell>
        <mxCell id="19zakmdn4GK2tteWEvWS-75" value="SoLuongHocVienToiDa" style="ellipse;whiteSpace=wrap;html=1;" parent="WIyWlLk6GJQsqaUBKTNV-1" vertex="1">
          <mxGeometry x="3080" y="1682" width="132" height="56" as="geometry" />
        </mxCell>
        <mxCell id="19zakmdn4GK2tteWEvWS-76" value="NgayBatDau" style="ellipse;whiteSpace=wrap;html=1;" parent="WIyWlLk6GJQsqaUBKTNV-1" vertex="1">
          <mxGeometry x="3036" y="1857.5" width="99" height="44" as="geometry" />
        </mxCell>
        <mxCell id="19zakmdn4GK2tteWEvWS-77" value="TongBuoiHoc" style="ellipse;whiteSpace=wrap;html=1;" parent="WIyWlLk6GJQsqaUBKTNV-1" vertex="1">
          <mxGeometry x="3179" y="1826" width="99" height="44" as="geometry" />
        </mxCell>
        <mxCell id="19zakmdn4GK2tteWEvWS-78" value="TrangThaiMoDangKi" style="ellipse;whiteSpace=wrap;html=1;" parent="WIyWlLk6GJQsqaUBKTNV-1" vertex="1">
          <mxGeometry x="3052.5" y="1936" width="137.5" height="45" as="geometry" />
        </mxCell>
        <mxCell id="19zakmdn4GK2tteWEvWS-79" value="TongHocVien" style="ellipse;whiteSpace=wrap;html=1;" parent="WIyWlLk6GJQsqaUBKTNV-1" vertex="1">
          <mxGeometry x="3223" y="1899" width="99" height="44" as="geometry" />
        </mxCell>
        <mxCell id="19zakmdn4GK2tteWEvWS-80" value="&lt;u&gt;MaPhong&lt;/u&gt;" style="ellipse;whiteSpace=wrap;html=1;" parent="WIyWlLk6GJQsqaUBKTNV-1" vertex="1">
          <mxGeometry x="3735.25" y="1284" width="99" height="44" as="geometry" />
        </mxCell>
        <mxCell id="19zakmdn4GK2tteWEvWS-82" value="SoLuongCho" style="ellipse;whiteSpace=wrap;html=1;" parent="WIyWlLk6GJQsqaUBKTNV-1" vertex="1">
          <mxGeometry x="3844.75" y="1394" width="99" height="44" as="geometry" />
        </mxCell>
        <mxCell id="19zakmdn4GK2tteWEvWS-83" value="&lt;u&gt;SoCa&lt;/u&gt;" style="ellipse;whiteSpace=wrap;html=1;" parent="WIyWlLk6GJQsqaUBKTNV-1" vertex="1">
          <mxGeometry x="3823" y="1797" width="99" height="44" as="geometry" />
        </mxCell>
        <mxCell id="19zakmdn4GK2tteWEvWS-84" value="GioBatDau" style="ellipse;whiteSpace=wrap;html=1;" parent="WIyWlLk6GJQsqaUBKTNV-1" vertex="1">
          <mxGeometry x="3872" y="1855" width="99" height="44" as="geometry" />
        </mxCell>
        <mxCell id="19zakmdn4GK2tteWEvWS-85" value="GioKetThuc" style="ellipse;whiteSpace=wrap;html=1;" parent="WIyWlLk6GJQsqaUBKTNV-1" vertex="1">
          <mxGeometry x="3801" y="1937" width="99" height="44" as="geometry" />
        </mxCell>
        <mxCell id="19zakmdn4GK2tteWEvWS-87" value="&lt;u&gt;MaHV&lt;/u&gt;" style="ellipse;whiteSpace=wrap;html=1;" parent="WIyWlLk6GJQsqaUBKTNV-1" vertex="1">
          <mxGeometry x="1985" y="1491" width="99" height="44" as="geometry" />
        </mxCell>
        <mxCell id="19zakmdn4GK2tteWEvWS-88" value="TenHV" style="ellipse;whiteSpace=wrap;html=1;" parent="WIyWlLk6GJQsqaUBKTNV-1" vertex="1">
          <mxGeometry x="2046" y="1642" width="99" height="44" as="geometry" />
        </mxCell>
        <mxCell id="19zakmdn4GK2tteWEvWS-89" value="NgaySinh" style="ellipse;whiteSpace=wrap;html=1;" parent="WIyWlLk6GJQsqaUBKTNV-1" vertex="1">
          <mxGeometry x="1925" y="1672" width="99" height="44" as="geometry" />
        </mxCell>
        <mxCell id="19zakmdn4GK2tteWEvWS-90" value="GioiTinh" style="ellipse;whiteSpace=wrap;html=1;" parent="WIyWlLk6GJQsqaUBKTNV-1" vertex="1">
          <mxGeometry x="2024" y="1720" width="99" height="44" as="geometry" />
        </mxCell>
        <mxCell id="19zakmdn4GK2tteWEvWS-91" value="DiaChi&lt;span style=&quot;color: rgba(0, 0, 0, 0); font-family: monospace; font-size: 0px; text-align: start; text-wrap: nowrap;&quot;&gt;%3CmxGraphModel%3E%3Croot%3E%3CmxCell%20id%3D%220%22%2F%3E%3CmxCell%20id%3D%221%22%20parent%3D%220%22%2F%3E%3CmxCell%20id%3D%222%22%20value%3D%22TenHV%22%20style%3D%22ellipse%3BwhiteSpace%3Dwrap%3Bhtml%3D1%3B%22%20vertex%3D%221%22%20parent%3D%221%22%3E%3CmxGeometry%20x%3D%223025%22%20y%3D%221375%22%20width%3D%2299%22%20height%3D%2244%22%20as%3D%22geometry%22%2F%3E%3C%2FmxCell%3E%3C%2Froot%3E%3C%2FmxGraphModel%3E&lt;/span&gt;" style="ellipse;whiteSpace=wrap;html=1;" parent="WIyWlLk6GJQsqaUBKTNV-1" vertex="1">
          <mxGeometry x="2153.5" y="1691" width="99" height="44" as="geometry" />
        </mxCell>
        <mxCell id="19zakmdn4GK2tteWEvWS-92" value="SDT&lt;span style=&quot;color: rgba(0, 0, 0, 0); font-family: monospace; font-size: 0px; text-align: start; text-wrap: nowrap;&quot;&gt;%3CmxGraphModel%3E%3Croot%3E%3CmxCell%20id%3D%220%22%2F%3E%3CmxCell%20id%3D%221%22%20parent%3D%220%22%2F%3E%3CmxCell%20id%3D%222%22%20value%3D%22TenHV%22%20style%3D%22ellipse%3BwhiteSpace%3Dwrap%3Bhtml%3D1%3B%22%20vertex%3D%221%22%20parent%3D%221%22%3E%3CmxGeometry%20x%3D%223025%22%20y%3D%221375%22%20width%3D%2299%22%20height%3D%2244%22%20as%3D%22geometry%22%2F%3E%3C%2FmxCell%3E%3C%2Froot%3E%3C%2FmxGraphModel%3E&lt;/span&gt;" style="ellipse;whiteSpace=wrap;html=1;" parent="WIyWlLk6GJQsqaUBKTNV-1" vertex="1">
          <mxGeometry x="1905.5" y="1601" width="99" height="44" as="geometry" />
        </mxCell>
        <mxCell id="19zakmdn4GK2tteWEvWS-93" value="CCCD" style="ellipse;whiteSpace=wrap;html=1;" parent="WIyWlLk6GJQsqaUBKTNV-1" vertex="1">
          <mxGeometry x="2244" y="1474" width="99" height="44" as="geometry" />
        </mxCell>
        <mxCell id="19zakmdn4GK2tteWEvWS-94" value="DiemGiuaKhoa" style="ellipse;whiteSpace=wrap;html=1;" parent="WIyWlLk6GJQsqaUBKTNV-1" vertex="1">
          <mxGeometry x="2210.5" y="1963" width="99" height="44" as="geometry" />
        </mxCell>
        <mxCell id="19zakmdn4GK2tteWEvWS-95" value="DiemCuoiKhoa&lt;span style=&quot;color: rgba(0, 0, 0, 0); font-family: monospace; font-size: 0px; text-align: start; text-wrap: nowrap;&quot;&gt;%3CmxGraphModel%3E%3Croot%3E%3CmxCell%20id%3D%220%22%2F%3E%3CmxCell%20id%3D%221%22%20parent%3D%220%22%2F%3E%3CmxCell%20id%3D%222%22%20value%3D%22CCCD%22%20style%3D%22ellipse%3BwhiteSpace%3Dwrap%3Bhtml%3D1%3B%22%20vertex%3D%221%22%20parent%3D%221%22%3E%3CmxGeometry%20x%3D%223143.5%22%20y%3D%221430%22%20width%3D%2299%22%20height%3D%2244%22%20as%3D%22geometry%22%2F%3E%3C%2FmxCell%3E%3C%2Froot%3E%3C%2FmxGraphModel%3E&lt;/span&gt;" style="ellipse;whiteSpace=wrap;html=1;" parent="WIyWlLk6GJQsqaUBKTNV-1" vertex="1">
          <mxGeometry x="2348.5" y="1943" width="99" height="44" as="geometry" />
        </mxCell>
        <mxCell id="19zakmdn4GK2tteWEvWS-96" value="TrangThaiThanhToan" style="ellipse;whiteSpace=wrap;html=1;" parent="WIyWlLk6GJQsqaUBKTNV-1" vertex="1">
          <mxGeometry x="2167" y="1870" width="132.5" height="58" as="geometry" />
        </mxCell>
        <mxCell id="19zakmdn4GK2tteWEvWS-97" value="TrangThaiCapChungChi" style="ellipse;whiteSpace=wrap;html=1;" parent="WIyWlLk6GJQsqaUBKTNV-1" vertex="1">
          <mxGeometry x="2464" y="1920" width="154" height="38" as="geometry" />
        </mxCell>
        <mxCell id="19zakmdn4GK2tteWEvWS-104" value="&lt;u&gt;MaLop&lt;/u&gt;" style="ellipse;whiteSpace=wrap;html=1;" parent="WIyWlLk6GJQsqaUBKTNV-1" vertex="1">
          <mxGeometry x="2453" y="847" width="99" height="44" as="geometry" />
        </mxCell>
        <mxCell id="19zakmdn4GK2tteWEvWS-105" value="TenLop" style="ellipse;whiteSpace=wrap;html=1;" parent="WIyWlLk6GJQsqaUBKTNV-1" vertex="1">
          <mxGeometry x="2692" y="814" width="99" height="44" as="geometry" />
        </mxCell>
        <mxCell id="19zakmdn4GK2tteWEvWS-106" value="TongSoBuoiHoc&lt;span style=&quot;color: rgba(0, 0, 0, 0); font-family: monospace; font-size: 0px; text-align: start; text-wrap: nowrap;&quot;&gt;%3CmxGraphModel%3E%3Croot%3E%3CmxCell%20id%3D%220%22%2F%3E%3CmxCell%20id%3D%221%22%20parent%3D%220%22%2F%3E%3CmxCell%20id%3D%222%22%20value%3D%22TenLop%22%20style%3D%22ellipse%3BwhiteSpace%3Dwrap%3Bhtml%3D1%3B%22%20vertex%3D%221%22%20parent%3D%221%22%3E%3CmxGeometry%20x%3D%223696%22%20y%3D%22539%22%20width%3D%2299%22%20height%3D%2244%22%20as%3D%22geometry%22%2F%3E%3C%2FmxCell%3E%3C%2Froot%3E%3C%2FmxGraphModel%3E&lt;/span&gt;" style="ellipse;whiteSpace=wrap;html=1;" parent="WIyWlLk6GJQsqaUBKTNV-1" vertex="1">
          <mxGeometry x="2777" y="880" width="99" height="44" as="geometry" />
        </mxCell>
        <mxCell id="19zakmdn4GK2tteWEvWS-107" value="HocPhi" style="ellipse;whiteSpace=wrap;html=1;" parent="WIyWlLk6GJQsqaUBKTNV-1" vertex="1">
          <mxGeometry x="2567" y="781" width="99" height="44" as="geometry" />
        </mxCell>
        <mxCell id="NLtxy-yFvtvTvt2Q45It-1" value="" style="endArrow=none;html=1;rounded=0;shape=link;exitX=0.5;exitY=0;exitDx=0;exitDy=0;entryX=0;entryY=0.5;entryDx=0;entryDy=0;" parent="WIyWlLk6GJQsqaUBKTNV-1" source="vqfMq5YI1HX7amYcBREN-33" target="vqfMq5YI1HX7amYcBREN-23" edge="1">
          <mxGeometry width="50" height="50" relative="1" as="geometry">
            <mxPoint x="1463" y="1315" as="sourcePoint" />
            <mxPoint x="935" y="1100" as="targetPoint" />
          </mxGeometry>
        </mxCell>
        <mxCell id="NLtxy-yFvtvTvt2Q45It-2" value="&lt;font style=&quot;font-size: 20px;&quot;&gt;&lt;b&gt;m&lt;/b&gt;&lt;/font&gt;" style="text;html=1;align=center;verticalAlign=middle;whiteSpace=wrap;rounded=0;" parent="WIyWlLk6GJQsqaUBKTNV-1" vertex="1">
          <mxGeometry x="1210" y="1166" width="60" height="30" as="geometry" />
        </mxCell>
        <mxCell id="NLtxy-yFvtvTvt2Q45It-4" value="&lt;span style=&quot;font-size: 20px;&quot;&gt;&lt;b&gt;1&lt;/b&gt;&lt;/span&gt;" style="text;html=1;align=center;verticalAlign=middle;whiteSpace=wrap;rounded=0;" parent="WIyWlLk6GJQsqaUBKTNV-1" vertex="1">
          <mxGeometry x="2046" y="968" width="60" height="30" as="geometry" />
        </mxCell>
        <mxCell id="NLtxy-yFvtvTvt2Q45It-5" value="" style="endArrow=none;html=1;rounded=0;shape=link;exitX=1;exitY=0.5;exitDx=0;exitDy=0;entryX=0;entryY=0.5;entryDx=0;entryDy=0;" parent="WIyWlLk6GJQsqaUBKTNV-1" source="vqfMq5YI1HX7amYcBREN-23" target="vqfMq5YI1HX7amYcBREN-34" edge="1">
          <mxGeometry width="50" height="50" relative="1" as="geometry">
            <mxPoint x="2002" y="1239" as="sourcePoint" />
            <mxPoint x="2299" y="1045" as="targetPoint" />
          </mxGeometry>
        </mxCell>
        <mxCell id="NLtxy-yFvtvTvt2Q45It-6" value="" style="endArrow=none;html=1;rounded=0;shape=link;exitX=1;exitY=0.5;exitDx=0;exitDy=0;entryX=0;entryY=0.5;entryDx=0;entryDy=0;" parent="WIyWlLk6GJQsqaUBKTNV-1" source="vqfMq5YI1HX7amYcBREN-34" target="vqfMq5YI1HX7amYcBREN-22" edge="1">
          <mxGeometry width="50" height="50" relative="1" as="geometry">
            <mxPoint x="2387" y="963" as="sourcePoint" />
            <mxPoint x="2437" y="913" as="targetPoint" />
          </mxGeometry>
        </mxCell>
        <mxCell id="NLtxy-yFvtvTvt2Q45It-8" value="" style="endArrow=none;html=1;rounded=0;shape=link;exitX=1;exitY=0.5;exitDx=0;exitDy=0;entryX=0.5;entryY=0;entryDx=0;entryDy=0;" parent="WIyWlLk6GJQsqaUBKTNV-1" source="vqfMq5YI1HX7amYcBREN-22" target="vqfMq5YI1HX7amYcBREN-35" edge="1">
          <mxGeometry width="50" height="50" relative="1" as="geometry">
            <mxPoint x="2882" y="1139" as="sourcePoint" />
            <mxPoint x="2932" y="1089" as="targetPoint" />
          </mxGeometry>
        </mxCell>
        <mxCell id="NLtxy-yFvtvTvt2Q45It-9" value="" style="endArrow=none;html=1;rounded=0;shape=link;entryX=0.5;entryY=1;entryDx=0;entryDy=0;exitX=0;exitY=0.5;exitDx=0;exitDy=0;" parent="WIyWlLk6GJQsqaUBKTNV-1" source="vqfMq5YI1HX7amYcBREN-39" target="vqfMq5YI1HX7amYcBREN-23" edge="1">
          <mxGeometry width="50" height="50" relative="1" as="geometry">
            <mxPoint x="2156" y="1216" as="sourcePoint" />
            <mxPoint x="2206" y="1166" as="targetPoint" />
          </mxGeometry>
        </mxCell>
        <mxCell id="NLtxy-yFvtvTvt2Q45It-10" value="" style="endArrow=none;html=1;rounded=0;shape=link;entryX=0;entryY=1;entryDx=0;entryDy=0;exitX=1;exitY=0.5;exitDx=0;exitDy=0;" parent="WIyWlLk6GJQsqaUBKTNV-1" source="vqfMq5YI1HX7amYcBREN-39" target="vqfMq5YI1HX7amYcBREN-22" edge="1">
          <mxGeometry width="50" height="50" relative="1" as="geometry">
            <mxPoint x="2310" y="1216" as="sourcePoint" />
            <mxPoint x="2360" y="1166" as="targetPoint" />
          </mxGeometry>
        </mxCell>
        <mxCell id="NLtxy-yFvtvTvt2Q45It-11" value="" style="endArrow=none;html=1;rounded=0;shape=link;entryX=0.5;entryY=1;entryDx=0;entryDy=0;exitX=0.5;exitY=0;exitDx=0;exitDy=0;" parent="WIyWlLk6GJQsqaUBKTNV-1" source="vqfMq5YI1HX7amYcBREN-16" target="vqfMq5YI1HX7amYcBREN-39" edge="1">
          <mxGeometry width="50" height="50" relative="1" as="geometry">
            <mxPoint x="2200" y="1491" as="sourcePoint" />
            <mxPoint x="2250" y="1441" as="targetPoint" />
          </mxGeometry>
        </mxCell>
        <mxCell id="NLtxy-yFvtvTvt2Q45It-12" value="" style="endArrow=none;html=1;rounded=0;shape=link;entryX=0.5;entryY=1;entryDx=0;entryDy=0;exitX=0.25;exitY=0;exitDx=0;exitDy=0;" parent="WIyWlLk6GJQsqaUBKTNV-1" source="vqfMq5YI1HX7amYcBREN-20" target="vqfMq5YI1HX7amYcBREN-35" edge="1">
          <mxGeometry width="50" height="50" relative="1" as="geometry">
            <mxPoint x="2849" y="1601" as="sourcePoint" />
            <mxPoint x="2899" y="1551" as="targetPoint" />
          </mxGeometry>
        </mxCell>
        <mxCell id="NLtxy-yFvtvTvt2Q45It-13" value="" style="endArrow=none;html=1;rounded=0;shape=link;entryX=0;entryY=0.5;entryDx=0;entryDy=0;exitX=0.5;exitY=0;exitDx=0;exitDy=0;" parent="WIyWlLk6GJQsqaUBKTNV-1" source="vqfMq5YI1HX7amYcBREN-20" target="vqfMq5YI1HX7amYcBREN-37" edge="1">
          <mxGeometry width="50" height="50" relative="1" as="geometry">
            <mxPoint x="3245" y="1711" as="sourcePoint" />
            <mxPoint x="3295" y="1661" as="targetPoint" />
            <Array as="points">
              <mxPoint x="3058" y="1639" />
            </Array>
          </mxGeometry>
        </mxCell>
        <mxCell id="NLtxy-yFvtvTvt2Q45It-17" value="" style="endArrow=none;html=1;rounded=0;shape=link;entryX=0.25;entryY=1;entryDx=0;entryDy=0;exitX=1;exitY=0.5;exitDx=0;exitDy=0;" parent="WIyWlLk6GJQsqaUBKTNV-1" source="vqfMq5YI1HX7amYcBREN-40" target="vqfMq5YI1HX7amYcBREN-20" edge="1">
          <mxGeometry width="50" height="50" relative="1" as="geometry">
            <mxPoint x="2519" y="2398" as="sourcePoint" />
            <mxPoint x="2822" y="2101" as="targetPoint" />
            <Array as="points">
              <mxPoint x="2871" y="2405" />
            </Array>
          </mxGeometry>
        </mxCell>
        <mxCell id="NLtxy-yFvtvTvt2Q45It-18" value="" style="endArrow=none;html=1;rounded=0;shape=link;entryX=1;entryY=1;entryDx=0;entryDy=0;exitX=0;exitY=0.5;exitDx=0;exitDy=0;" parent="WIyWlLk6GJQsqaUBKTNV-1" source="19zakmdn4GK2tteWEvWS-24" target="vqfMq5YI1HX7amYcBREN-16" edge="1">
          <mxGeometry width="50" height="50" relative="1" as="geometry">
            <mxPoint x="2387" y="1711" as="sourcePoint" />
            <mxPoint x="2437" y="1661" as="targetPoint" />
          </mxGeometry>
        </mxCell>
        <mxCell id="NLtxy-yFvtvTvt2Q45It-19" value="" style="endArrow=none;html=1;rounded=0;shape=link;exitX=1;exitY=0.5;exitDx=0;exitDy=0;entryX=0;entryY=0.5;entryDx=0;entryDy=0;" parent="WIyWlLk6GJQsqaUBKTNV-1" source="vqfMq5YI1HX7amYcBREN-77" target="vqfMq5YI1HX7amYcBREN-16" edge="1">
          <mxGeometry width="50" height="50" relative="1" as="geometry">
            <mxPoint x="2090" y="1612" as="sourcePoint" />
            <mxPoint x="2140" y="1562" as="targetPoint" />
          </mxGeometry>
        </mxCell>
        <mxCell id="NLtxy-yFvtvTvt2Q45It-20" value="" style="endArrow=none;html=1;rounded=0;shape=link;entryX=0;entryY=0.5;entryDx=0;entryDy=0;exitX=0.5;exitY=0;exitDx=0;exitDy=0;" parent="WIyWlLk6GJQsqaUBKTNV-1" source="vqfMq5YI1HX7amYcBREN-25" target="vqfMq5YI1HX7amYcBREN-77" edge="1">
          <mxGeometry width="50" height="50" relative="1" as="geometry">
            <mxPoint x="1727" y="1810" as="sourcePoint" />
            <mxPoint x="1777" y="1760" as="targetPoint" />
          </mxGeometry>
        </mxCell>
        <mxCell id="NLtxy-yFvtvTvt2Q45It-21" value="" style="endArrow=none;html=1;rounded=0;shape=link;exitX=0.5;exitY=0;exitDx=0;exitDy=0;entryX=0.5;entryY=1;entryDx=0;entryDy=0;" parent="WIyWlLk6GJQsqaUBKTNV-1" source="vqfMq5YI1HX7amYcBREN-78" target="vqfMq5YI1HX7amYcBREN-25" edge="1">
          <mxGeometry width="50" height="50" relative="1" as="geometry">
            <mxPoint x="1727" y="1810" as="sourcePoint" />
            <mxPoint x="1777" y="1760" as="targetPoint" />
          </mxGeometry>
        </mxCell>
        <mxCell id="NLtxy-yFvtvTvt2Q45It-22" value="" style="endArrow=none;html=1;rounded=0;shape=link;exitX=0.5;exitY=0;exitDx=0;exitDy=0;entryX=0.5;entryY=1;entryDx=0;entryDy=0;" parent="WIyWlLk6GJQsqaUBKTNV-1" source="vqfMq5YI1HX7amYcBREN-24" target="vqfMq5YI1HX7amYcBREN-78" edge="1">
          <mxGeometry width="50" height="50" relative="1" as="geometry">
            <mxPoint x="1727" y="2085" as="sourcePoint" />
            <mxPoint x="1777" y="2035" as="targetPoint" />
          </mxGeometry>
        </mxCell>
        <mxCell id="NLtxy-yFvtvTvt2Q45It-23" value="&lt;font style=&quot;font-size: 20px;&quot;&gt;&lt;b&gt;n&lt;/b&gt;&lt;/font&gt;" style="text;html=1;align=center;verticalAlign=middle;whiteSpace=wrap;rounded=0;" parent="WIyWlLk6GJQsqaUBKTNV-1" vertex="1">
          <mxGeometry x="759" y="1936" width="60" height="30" as="geometry" />
        </mxCell>
        <mxCell id="NLtxy-yFvtvTvt2Q45It-24" value="" style="endArrow=none;html=1;rounded=0;shape=link;entryX=0.5;entryY=1;entryDx=0;entryDy=0;exitX=0;exitY=0.5;exitDx=0;exitDy=0;" parent="WIyWlLk6GJQsqaUBKTNV-1" source="vqfMq5YI1HX7amYcBREN-24" edge="1">
          <mxGeometry width="50" height="50" relative="1" as="geometry">
            <mxPoint x="528" y="2043" as="sourcePoint" />
            <mxPoint x="753.4999999999995" y="1562" as="targetPoint" />
            <Array as="points">
              <mxPoint x="737" y="2189" />
            </Array>
          </mxGeometry>
        </mxCell>
        <mxCell id="NLtxy-yFvtvTvt2Q45It-27" value="" style="endArrow=none;html=1;rounded=0;shape=link;exitX=1;exitY=1;exitDx=0;exitDy=0;entryX=0;entryY=0.5;entryDx=0;entryDy=0;" parent="WIyWlLk6GJQsqaUBKTNV-1" source="vqfMq5YI1HX7amYcBREN-24" target="vqfMq5YI1HX7amYcBREN-40" edge="1">
          <mxGeometry width="50" height="50" relative="1" as="geometry">
            <mxPoint x="1991" y="2393" as="sourcePoint" />
            <mxPoint x="2041" y="2343" as="targetPoint" />
            <Array as="points">
              <mxPoint x="2024" y="2405" />
            </Array>
          </mxGeometry>
        </mxCell>
        <mxCell id="NLtxy-yFvtvTvt2Q45It-28" value="" style="endArrow=none;html=1;rounded=0;entryX=0;entryY=0.5;entryDx=0;entryDy=0;exitX=1;exitY=0.5;exitDx=0;exitDy=0;" parent="WIyWlLk6GJQsqaUBKTNV-1" source="vqfMq5YI1HX7amYcBREN-16" target="vqfMq5YI1HX7amYcBREN-91" edge="1">
          <mxGeometry width="50" height="50" relative="1" as="geometry">
            <mxPoint x="2420" y="1634" as="sourcePoint" />
            <mxPoint x="2470" y="1584" as="targetPoint" />
          </mxGeometry>
        </mxCell>
        <mxCell id="NLtxy-yFvtvTvt2Q45It-31" value="" style="endArrow=none;html=1;rounded=0;exitX=0.5;exitY=1;exitDx=0;exitDy=0;entryX=0;entryY=0;entryDx=0;entryDy=0;" parent="WIyWlLk6GJQsqaUBKTNV-1" source="vqfMq5YI1HX7amYcBREN-91" target="vqfMq5YI1HX7amYcBREN-20" edge="1">
          <mxGeometry width="50" height="50" relative="1" as="geometry">
            <mxPoint x="2816" y="1689" as="sourcePoint" />
            <mxPoint x="2866" y="1639" as="targetPoint" />
          </mxGeometry>
        </mxCell>
        <mxCell id="NLtxy-yFvtvTvt2Q45It-32" value="" style="endArrow=none;html=1;rounded=0;exitX=1;exitY=0.5;exitDx=0;exitDy=0;entryX=0;entryY=0.5;entryDx=0;entryDy=0;" parent="WIyWlLk6GJQsqaUBKTNV-1" source="19zakmdn4GK2tteWEvWS-24" target="vqfMq5YI1HX7amYcBREN-20" edge="1">
          <mxGeometry width="50" height="50" relative="1" as="geometry">
            <mxPoint x="2552" y="1843" as="sourcePoint" />
            <mxPoint x="2602" y="1793" as="targetPoint" />
          </mxGeometry>
        </mxCell>
        <mxCell id="NLtxy-yFvtvTvt2Q45It-34" value="" style="endArrow=none;html=1;rounded=0;exitX=0.5;exitY=0;exitDx=0;exitDy=0;entryX=0;entryY=1;entryDx=0;entryDy=0;" parent="WIyWlLk6GJQsqaUBKTNV-1" source="vqfMq5YI1HX7amYcBREN-37" target="vqfMq5YI1HX7amYcBREN-27" edge="1">
          <mxGeometry width="50" height="50" relative="1" as="geometry">
            <mxPoint x="3663" y="1458" as="sourcePoint" />
            <mxPoint x="3713" y="1408" as="targetPoint" />
          </mxGeometry>
        </mxCell>
        <mxCell id="NLtxy-yFvtvTvt2Q45It-35" value="" style="endArrow=none;html=1;rounded=0;exitX=0.5;exitY=1;exitDx=0;exitDy=0;entryX=0;entryY=0;entryDx=0;entryDy=0;" parent="WIyWlLk6GJQsqaUBKTNV-1" source="vqfMq5YI1HX7amYcBREN-37" target="vqfMq5YI1HX7amYcBREN-28" edge="1">
          <mxGeometry width="50" height="50" relative="1" as="geometry">
            <mxPoint x="3663" y="1766" as="sourcePoint" />
            <mxPoint x="3713" y="1716" as="targetPoint" />
          </mxGeometry>
        </mxCell>
        <mxCell id="NLtxy-yFvtvTvt2Q45It-47" value="" style="endArrow=none;html=1;rounded=0;exitX=0.75;exitY=0;exitDx=0;exitDy=0;entryX=0;entryY=0.5;entryDx=0;entryDy=0;" parent="WIyWlLk6GJQsqaUBKTNV-1" source="vqfMq5YI1HX7amYcBREN-16" target="19zakmdn4GK2tteWEvWS-93" edge="1">
          <mxGeometry width="50" height="50" relative="1" as="geometry">
            <mxPoint x="2244" y="1491" as="sourcePoint" />
            <mxPoint x="2294" y="1441" as="targetPoint" />
          </mxGeometry>
        </mxCell>
        <mxCell id="NLtxy-yFvtvTvt2Q45It-48" value="" style="endArrow=none;html=1;rounded=0;exitX=0.25;exitY=0;exitDx=0;exitDy=0;entryX=1;entryY=0.5;entryDx=0;entryDy=0;" parent="WIyWlLk6GJQsqaUBKTNV-1" source="vqfMq5YI1HX7amYcBREN-16" target="19zakmdn4GK2tteWEvWS-87" edge="1">
          <mxGeometry width="50" height="50" relative="1" as="geometry">
            <mxPoint x="2112" y="1568" as="sourcePoint" />
            <mxPoint x="2162" y="1518" as="targetPoint" />
          </mxGeometry>
        </mxCell>
        <mxCell id="NLtxy-yFvtvTvt2Q45It-49" value="" style="endArrow=none;html=1;rounded=0;exitX=1;exitY=0.5;exitDx=0;exitDy=0;entryX=0;entryY=0.75;entryDx=0;entryDy=0;" parent="WIyWlLk6GJQsqaUBKTNV-1" source="19zakmdn4GK2tteWEvWS-92" target="vqfMq5YI1HX7amYcBREN-16" edge="1">
          <mxGeometry width="50" height="50" relative="1" as="geometry">
            <mxPoint x="2112" y="1722" as="sourcePoint" />
            <mxPoint x="2162" y="1672" as="targetPoint" />
          </mxGeometry>
        </mxCell>
        <mxCell id="NLtxy-yFvtvTvt2Q45It-51" value="" style="endArrow=none;html=1;rounded=0;entryX=0.5;entryY=0;entryDx=0;entryDy=0;exitX=0;exitY=1;exitDx=0;exitDy=0;" parent="WIyWlLk6GJQsqaUBKTNV-1" source="vqfMq5YI1HX7amYcBREN-16" target="19zakmdn4GK2tteWEvWS-89" edge="1">
          <mxGeometry width="50" height="50" relative="1" as="geometry">
            <mxPoint x="2112" y="1722" as="sourcePoint" />
            <mxPoint x="2162" y="1672" as="targetPoint" />
          </mxGeometry>
        </mxCell>
        <mxCell id="NLtxy-yFvtvTvt2Q45It-52" value="" style="endArrow=none;html=1;rounded=0;exitX=0.5;exitY=0;exitDx=0;exitDy=0;entryX=0.25;entryY=1;entryDx=0;entryDy=0;" parent="WIyWlLk6GJQsqaUBKTNV-1" source="19zakmdn4GK2tteWEvWS-88" target="vqfMq5YI1HX7amYcBREN-16" edge="1">
          <mxGeometry width="50" height="50" relative="1" as="geometry">
            <mxPoint x="2112" y="1722" as="sourcePoint" />
            <mxPoint x="2162" y="1672" as="targetPoint" />
          </mxGeometry>
        </mxCell>
        <mxCell id="NLtxy-yFvtvTvt2Q45It-53" value="" style="endArrow=none;html=1;rounded=0;entryX=0.5;entryY=1;entryDx=0;entryDy=0;exitX=1;exitY=0;exitDx=0;exitDy=0;" parent="WIyWlLk6GJQsqaUBKTNV-1" source="19zakmdn4GK2tteWEvWS-90" target="vqfMq5YI1HX7amYcBREN-16" edge="1">
          <mxGeometry width="50" height="50" relative="1" as="geometry">
            <mxPoint x="2112" y="1722" as="sourcePoint" />
            <mxPoint x="2162" y="1672" as="targetPoint" />
            <Array as="points">
              <mxPoint x="2156" y="1683" />
            </Array>
          </mxGeometry>
        </mxCell>
        <mxCell id="NLtxy-yFvtvTvt2Q45It-54" value="" style="endArrow=none;html=1;rounded=0;entryX=0.75;entryY=1;entryDx=0;entryDy=0;exitX=0.5;exitY=0;exitDx=0;exitDy=0;" parent="WIyWlLk6GJQsqaUBKTNV-1" source="19zakmdn4GK2tteWEvWS-91" target="vqfMq5YI1HX7amYcBREN-16" edge="1">
          <mxGeometry width="50" height="50" relative="1" as="geometry">
            <mxPoint x="2112" y="1722" as="sourcePoint" />
            <mxPoint x="2162" y="1672" as="targetPoint" />
          </mxGeometry>
        </mxCell>
        <mxCell id="NLtxy-yFvtvTvt2Q45It-55" value="" style="endArrow=none;html=1;rounded=0;exitX=0.75;exitY=0;exitDx=0;exitDy=0;entryX=0.5;entryY=1;entryDx=0;entryDy=0;" parent="WIyWlLk6GJQsqaUBKTNV-1" source="vqfMq5YI1HX7amYcBREN-23" target="19zakmdn4GK2tteWEvWS-71" edge="1">
          <mxGeometry width="50" height="50" relative="1" as="geometry">
            <mxPoint x="1914" y="908" as="sourcePoint" />
            <mxPoint x="1964" y="858" as="targetPoint" />
          </mxGeometry>
        </mxCell>
        <mxCell id="NLtxy-yFvtvTvt2Q45It-56" value="" style="endArrow=none;html=1;rounded=0;exitX=0.5;exitY=1;exitDx=0;exitDy=0;entryX=0.25;entryY=0;entryDx=0;entryDy=0;" parent="WIyWlLk6GJQsqaUBKTNV-1" source="19zakmdn4GK2tteWEvWS-70" target="vqfMq5YI1HX7amYcBREN-23" edge="1">
          <mxGeometry width="50" height="50" relative="1" as="geometry">
            <mxPoint x="1914" y="908" as="sourcePoint" />
            <mxPoint x="1964" y="858" as="targetPoint" />
          </mxGeometry>
        </mxCell>
        <mxCell id="NLtxy-yFvtvTvt2Q45It-57" value="" style="endArrow=none;html=1;rounded=0;entryX=1;entryY=0.5;entryDx=0;entryDy=0;exitX=0;exitY=0;exitDx=0;exitDy=0;" parent="WIyWlLk6GJQsqaUBKTNV-1" source="vqfMq5YI1HX7amYcBREN-22" target="19zakmdn4GK2tteWEvWS-104" edge="1">
          <mxGeometry width="50" height="50" relative="1" as="geometry">
            <mxPoint x="2486" y="908" as="sourcePoint" />
            <mxPoint x="2536" y="858" as="targetPoint" />
          </mxGeometry>
        </mxCell>
        <mxCell id="NLtxy-yFvtvTvt2Q45It-58" value="" style="endArrow=none;html=1;rounded=0;entryX=0.5;entryY=1;entryDx=0;entryDy=0;exitX=0.25;exitY=0;exitDx=0;exitDy=0;" parent="WIyWlLk6GJQsqaUBKTNV-1" source="vqfMq5YI1HX7amYcBREN-22" target="19zakmdn4GK2tteWEvWS-107" edge="1">
          <mxGeometry width="50" height="50" relative="1" as="geometry">
            <mxPoint x="2486" y="908" as="sourcePoint" />
            <mxPoint x="2536" y="858" as="targetPoint" />
          </mxGeometry>
        </mxCell>
        <mxCell id="NLtxy-yFvtvTvt2Q45It-59" value="" style="endArrow=none;html=1;rounded=0;entryX=0;entryY=1;entryDx=0;entryDy=0;exitX=0.75;exitY=0;exitDx=0;exitDy=0;" parent="WIyWlLk6GJQsqaUBKTNV-1" source="vqfMq5YI1HX7amYcBREN-22" target="19zakmdn4GK2tteWEvWS-105" edge="1">
          <mxGeometry width="50" height="50" relative="1" as="geometry">
            <mxPoint x="2486" y="908" as="sourcePoint" />
            <mxPoint x="2536" y="858" as="targetPoint" />
          </mxGeometry>
        </mxCell>
        <mxCell id="NLtxy-yFvtvTvt2Q45It-60" value="" style="endArrow=none;html=1;rounded=0;exitX=1;exitY=0;exitDx=0;exitDy=0;entryX=0;entryY=0.5;entryDx=0;entryDy=0;" parent="WIyWlLk6GJQsqaUBKTNV-1" source="vqfMq5YI1HX7amYcBREN-22" target="19zakmdn4GK2tteWEvWS-106" edge="1">
          <mxGeometry width="50" height="50" relative="1" as="geometry">
            <mxPoint x="2717" y="908" as="sourcePoint" />
            <mxPoint x="2767" y="858" as="targetPoint" />
          </mxGeometry>
        </mxCell>
        <mxCell id="NLtxy-yFvtvTvt2Q45It-63" value="" style="endArrow=none;html=1;rounded=0;exitX=0.75;exitY=0;exitDx=0;exitDy=0;entryX=0;entryY=0.5;entryDx=0;entryDy=0;" parent="WIyWlLk6GJQsqaUBKTNV-1" source="vqfMq5YI1HX7amYcBREN-20" target="19zakmdn4GK2tteWEvWS-75" edge="1">
          <mxGeometry width="50" height="50" relative="1" as="geometry">
            <mxPoint x="3157" y="1843" as="sourcePoint" />
            <mxPoint x="3207" y="1793" as="targetPoint" />
          </mxGeometry>
        </mxCell>
        <mxCell id="NLtxy-yFvtvTvt2Q45It-64" value="" style="endArrow=none;html=1;rounded=0;exitX=1;exitY=0.25;exitDx=0;exitDy=0;entryX=0;entryY=0.5;entryDx=0;entryDy=0;" parent="WIyWlLk6GJQsqaUBKTNV-1" source="vqfMq5YI1HX7amYcBREN-20" target="19zakmdn4GK2tteWEvWS-73" edge="1">
          <mxGeometry width="50" height="50" relative="1" as="geometry">
            <mxPoint x="3157" y="1843" as="sourcePoint" />
            <mxPoint x="3207" y="1793" as="targetPoint" />
          </mxGeometry>
        </mxCell>
        <mxCell id="NLtxy-yFvtvTvt2Q45It-65" value="" style="endArrow=none;html=1;rounded=0;exitX=1;exitY=0.5;exitDx=0;exitDy=0;entryX=0;entryY=0.5;entryDx=0;entryDy=0;" parent="WIyWlLk6GJQsqaUBKTNV-1" source="vqfMq5YI1HX7amYcBREN-20" target="19zakmdn4GK2tteWEvWS-76" edge="1">
          <mxGeometry width="50" height="50" relative="1" as="geometry">
            <mxPoint x="3157" y="1931" as="sourcePoint" />
            <mxPoint x="3207" y="1881" as="targetPoint" />
          </mxGeometry>
        </mxCell>
        <mxCell id="NLtxy-yFvtvTvt2Q45It-66" value="" style="endArrow=none;html=1;rounded=0;exitX=1;exitY=0.75;exitDx=0;exitDy=0;entryX=0;entryY=0.5;entryDx=0;entryDy=0;" parent="WIyWlLk6GJQsqaUBKTNV-1" source="vqfMq5YI1HX7amYcBREN-20" target="19zakmdn4GK2tteWEvWS-78" edge="1">
          <mxGeometry width="50" height="50" relative="1" as="geometry">
            <mxPoint x="3157" y="1931" as="sourcePoint" />
            <mxPoint x="3207" y="1881" as="targetPoint" />
          </mxGeometry>
        </mxCell>
        <mxCell id="NLtxy-yFvtvTvt2Q45It-67" value="" style="endArrow=none;html=1;rounded=0;exitX=1;exitY=0.25;exitDx=0;exitDy=0;entryX=0;entryY=0.5;entryDx=0;entryDy=0;" parent="WIyWlLk6GJQsqaUBKTNV-1" source="vqfMq5YI1HX7amYcBREN-20" target="19zakmdn4GK2tteWEvWS-77" edge="1">
          <mxGeometry width="50" height="50" relative="1" as="geometry">
            <mxPoint x="3157" y="1931" as="sourcePoint" />
            <mxPoint x="3207" y="1881" as="targetPoint" />
            <Array as="points">
              <mxPoint x="3069" y="1848" />
            </Array>
          </mxGeometry>
        </mxCell>
        <mxCell id="NLtxy-yFvtvTvt2Q45It-68" value="" style="endArrow=none;html=1;rounded=0;entryX=0;entryY=0.5;entryDx=0;entryDy=0;exitX=1;exitY=0;exitDx=0;exitDy=0;" parent="WIyWlLk6GJQsqaUBKTNV-1" source="vqfMq5YI1HX7amYcBREN-20" target="19zakmdn4GK2tteWEvWS-74" edge="1">
          <mxGeometry width="50" height="50" relative="1" as="geometry">
            <mxPoint x="3157" y="1843" as="sourcePoint" />
            <mxPoint x="3207" y="1793" as="targetPoint" />
            <Array as="points">
              <mxPoint x="3069" y="1760" />
            </Array>
          </mxGeometry>
        </mxCell>
        <mxCell id="NLtxy-yFvtvTvt2Q45It-69" value="" style="endArrow=none;html=1;rounded=0;exitX=1;exitY=0.75;exitDx=0;exitDy=0;entryX=0;entryY=0.5;entryDx=0;entryDy=0;" parent="WIyWlLk6GJQsqaUBKTNV-1" source="vqfMq5YI1HX7amYcBREN-20" target="19zakmdn4GK2tteWEvWS-79" edge="1">
          <mxGeometry width="50" height="50" relative="1" as="geometry">
            <mxPoint x="3135" y="1920" as="sourcePoint" />
            <mxPoint x="3185" y="1870" as="targetPoint" />
          </mxGeometry>
        </mxCell>
        <mxCell id="NLtxy-yFvtvTvt2Q45It-74" value="" style="endArrow=none;html=1;rounded=0;exitX=0.5;exitY=0;exitDx=0;exitDy=0;entryX=0;entryY=0.5;entryDx=0;entryDy=0;" parent="WIyWlLk6GJQsqaUBKTNV-1" source="vqfMq5YI1HX7amYcBREN-28" target="19zakmdn4GK2tteWEvWS-83" edge="1">
          <mxGeometry width="50" height="50" relative="1" as="geometry">
            <mxPoint x="3806" y="1898" as="sourcePoint" />
            <mxPoint x="3856" y="1848" as="targetPoint" />
          </mxGeometry>
        </mxCell>
        <mxCell id="NLtxy-yFvtvTvt2Q45It-75" value="" style="endArrow=none;html=1;rounded=0;exitX=1;exitY=0.5;exitDx=0;exitDy=0;entryX=0;entryY=0.5;entryDx=0;entryDy=0;" parent="WIyWlLk6GJQsqaUBKTNV-1" source="vqfMq5YI1HX7amYcBREN-28" target="19zakmdn4GK2tteWEvWS-84" edge="1">
          <mxGeometry width="50" height="50" relative="1" as="geometry">
            <mxPoint x="3806" y="1898" as="sourcePoint" />
            <mxPoint x="3856" y="1848" as="targetPoint" />
          </mxGeometry>
        </mxCell>
        <mxCell id="NLtxy-yFvtvTvt2Q45It-76" value="" style="endArrow=none;html=1;rounded=0;exitX=0.5;exitY=1;exitDx=0;exitDy=0;entryX=0;entryY=0.5;entryDx=0;entryDy=0;" parent="WIyWlLk6GJQsqaUBKTNV-1" source="vqfMq5YI1HX7amYcBREN-28" target="19zakmdn4GK2tteWEvWS-85" edge="1">
          <mxGeometry width="50" height="50" relative="1" as="geometry">
            <mxPoint x="3806" y="1898" as="sourcePoint" />
            <mxPoint x="3856" y="1848" as="targetPoint" />
          </mxGeometry>
        </mxCell>
        <mxCell id="NLtxy-yFvtvTvt2Q45It-77" value="" style="endArrow=none;html=1;rounded=0;exitX=0.5;exitY=0;exitDx=0;exitDy=0;entryX=0.5;entryY=1;entryDx=0;entryDy=0;" parent="WIyWlLk6GJQsqaUBKTNV-1" source="vqfMq5YI1HX7amYcBREN-27" target="19zakmdn4GK2tteWEvWS-80" edge="1">
          <mxGeometry width="50" height="50" relative="1" as="geometry">
            <mxPoint x="3806" y="1425" as="sourcePoint" />
            <mxPoint x="3856" y="1375" as="targetPoint" />
          </mxGeometry>
        </mxCell>
        <mxCell id="NLtxy-yFvtvTvt2Q45It-78" value="" style="endArrow=none;html=1;rounded=0;exitX=1;exitY=0.5;exitDx=0;exitDy=0;entryX=0;entryY=0.5;entryDx=0;entryDy=0;" parent="WIyWlLk6GJQsqaUBKTNV-1" source="vqfMq5YI1HX7amYcBREN-27" target="19zakmdn4GK2tteWEvWS-82" edge="1">
          <mxGeometry width="50" height="50" relative="1" as="geometry">
            <mxPoint x="3806" y="1425" as="sourcePoint" />
            <mxPoint x="3856" y="1375" as="targetPoint" />
          </mxGeometry>
        </mxCell>
        <mxCell id="NLtxy-yFvtvTvt2Q45It-79" value="" style="endArrow=none;html=1;rounded=0;exitX=1;exitY=0.5;exitDx=0;exitDy=0;entryX=0;entryY=0.5;entryDx=0;entryDy=0;" parent="WIyWlLk6GJQsqaUBKTNV-1" source="19zakmdn4GK2tteWEvWS-96" target="19zakmdn4GK2tteWEvWS-24" edge="1">
          <mxGeometry width="50" height="50" relative="1" as="geometry">
            <mxPoint x="2332" y="1942" as="sourcePoint" />
            <mxPoint x="2382" y="1892" as="targetPoint" />
          </mxGeometry>
        </mxCell>
        <mxCell id="NLtxy-yFvtvTvt2Q45It-80" value="" style="endArrow=none;html=1;rounded=0;exitX=0.5;exitY=0;exitDx=0;exitDy=0;entryX=0;entryY=1;entryDx=0;entryDy=0;" parent="WIyWlLk6GJQsqaUBKTNV-1" source="19zakmdn4GK2tteWEvWS-94" target="19zakmdn4GK2tteWEvWS-24" edge="1">
          <mxGeometry width="50" height="50" relative="1" as="geometry">
            <mxPoint x="2332" y="1942" as="sourcePoint" />
            <mxPoint x="2382" y="1892" as="targetPoint" />
          </mxGeometry>
        </mxCell>
        <mxCell id="NLtxy-yFvtvTvt2Q45It-81" value="" style="endArrow=none;html=1;rounded=0;exitX=0.5;exitY=0;exitDx=0;exitDy=0;entryX=0.5;entryY=1;entryDx=0;entryDy=0;" parent="WIyWlLk6GJQsqaUBKTNV-1" source="19zakmdn4GK2tteWEvWS-95" target="19zakmdn4GK2tteWEvWS-24" edge="1">
          <mxGeometry width="50" height="50" relative="1" as="geometry">
            <mxPoint x="2332" y="1942" as="sourcePoint" />
            <mxPoint x="2382" y="1892" as="targetPoint" />
          </mxGeometry>
        </mxCell>
        <mxCell id="NLtxy-yFvtvTvt2Q45It-82" value="" style="endArrow=none;html=1;rounded=0;entryX=1;entryY=1;entryDx=0;entryDy=0;exitX=0.5;exitY=0;exitDx=0;exitDy=0;" parent="WIyWlLk6GJQsqaUBKTNV-1" source="19zakmdn4GK2tteWEvWS-97" target="19zakmdn4GK2tteWEvWS-24" edge="1">
          <mxGeometry width="50" height="50" relative="1" as="geometry">
            <mxPoint x="2332" y="1942" as="sourcePoint" />
            <mxPoint x="2382" y="1892" as="targetPoint" />
          </mxGeometry>
        </mxCell>
        <mxCell id="NLtxy-yFvtvTvt2Q45It-83" value="" style="endArrow=none;html=1;rounded=0;exitX=1;exitY=0.5;exitDx=0;exitDy=0;entryX=0;entryY=0.75;entryDx=0;entryDy=0;" parent="WIyWlLk6GJQsqaUBKTNV-1" source="19zakmdn4GK2tteWEvWS-54" target="vqfMq5YI1HX7amYcBREN-24" edge="1">
          <mxGeometry width="50" height="50" relative="1" as="geometry">
            <mxPoint x="1573" y="2228" as="sourcePoint" />
            <mxPoint x="1623" y="2178" as="targetPoint" />
            <Array as="points">
              <mxPoint x="1474" y="2211" />
            </Array>
          </mxGeometry>
        </mxCell>
        <mxCell id="NLtxy-yFvtvTvt2Q45It-84" value="" style="endArrow=none;html=1;rounded=0;exitX=0.5;exitY=0;exitDx=0;exitDy=0;entryX=0;entryY=1;entryDx=0;entryDy=0;" parent="WIyWlLk6GJQsqaUBKTNV-1" source="19zakmdn4GK2tteWEvWS-59" target="vqfMq5YI1HX7amYcBREN-24" edge="1">
          <mxGeometry width="50" height="50" relative="1" as="geometry">
            <mxPoint x="1573" y="2228" as="sourcePoint" />
            <mxPoint x="1623" y="2178" as="targetPoint" />
          </mxGeometry>
        </mxCell>
        <mxCell id="NLtxy-yFvtvTvt2Q45It-85" value="" style="endArrow=none;html=1;rounded=0;exitX=1;exitY=0.5;exitDx=0;exitDy=0;" parent="WIyWlLk6GJQsqaUBKTNV-1" source="19zakmdn4GK2tteWEvWS-56" edge="1">
          <mxGeometry width="50" height="50" relative="1" as="geometry">
            <mxPoint x="1573" y="2228" as="sourcePoint" />
            <mxPoint x="1595" y="2222" as="targetPoint" />
          </mxGeometry>
        </mxCell>
        <mxCell id="NLtxy-yFvtvTvt2Q45It-86" value="" style="endArrow=none;html=1;rounded=0;exitX=0.5;exitY=0;exitDx=0;exitDy=0;entryX=0.25;entryY=1;entryDx=0;entryDy=0;" parent="WIyWlLk6GJQsqaUBKTNV-1" source="19zakmdn4GK2tteWEvWS-57" target="vqfMq5YI1HX7amYcBREN-24" edge="1">
          <mxGeometry width="50" height="50" relative="1" as="geometry">
            <mxPoint x="1573" y="2228" as="sourcePoint" />
            <mxPoint x="1623" y="2178" as="targetPoint" />
          </mxGeometry>
        </mxCell>
        <mxCell id="NLtxy-yFvtvTvt2Q45It-87" value="" style="endArrow=none;html=1;rounded=0;exitX=1;exitY=0.5;exitDx=0;exitDy=0;entryX=0.5;entryY=1;entryDx=0;entryDy=0;" parent="WIyWlLk6GJQsqaUBKTNV-1" source="19zakmdn4GK2tteWEvWS-55" target="vqfMq5YI1HX7amYcBREN-24" edge="1">
          <mxGeometry width="50" height="50" relative="1" as="geometry">
            <mxPoint x="1573" y="2228" as="sourcePoint" />
            <mxPoint x="1623" y="2178" as="targetPoint" />
            <Array as="points">
              <mxPoint x="1683" y="2387" />
            </Array>
          </mxGeometry>
        </mxCell>
        <mxCell id="NLtxy-yFvtvTvt2Q45It-88" value="" style="endArrow=none;html=1;rounded=0;entryX=0.75;entryY=1;entryDx=0;entryDy=0;exitX=0.5;exitY=0;exitDx=0;exitDy=0;" parent="WIyWlLk6GJQsqaUBKTNV-1" source="19zakmdn4GK2tteWEvWS-58" target="vqfMq5YI1HX7amYcBREN-24" edge="1">
          <mxGeometry width="50" height="50" relative="1" as="geometry">
            <mxPoint x="1573" y="2228" as="sourcePoint" />
            <mxPoint x="1623" y="2178" as="targetPoint" />
          </mxGeometry>
        </mxCell>
        <mxCell id="NLtxy-yFvtvTvt2Q45It-89" value="" style="endArrow=none;html=1;rounded=0;exitX=1;exitY=0.5;exitDx=0;exitDy=0;entryX=0;entryY=0;entryDx=0;entryDy=0;" parent="WIyWlLk6GJQsqaUBKTNV-1" source="19zakmdn4GK2tteWEvWS-60" target="vqfMq5YI1HX7amYcBREN-24" edge="1">
          <mxGeometry width="50" height="50" relative="1" as="geometry">
            <mxPoint x="1573" y="2041" as="sourcePoint" />
            <mxPoint x="1623" y="1991" as="targetPoint" />
          </mxGeometry>
        </mxCell>
        <mxCell id="NLtxy-yFvtvTvt2Q45It-90" value="" style="endArrow=none;html=1;rounded=0;entryX=0.25;entryY=1;entryDx=0;entryDy=0;shape=link;" parent="WIyWlLk6GJQsqaUBKTNV-1" target="vqfMq5YI1HX7amYcBREN-25" edge="1">
          <mxGeometry width="50" height="50" relative="1" as="geometry">
            <mxPoint x="1518" y="1914" as="sourcePoint" />
            <mxPoint x="1199" y="2060" as="targetPoint" />
          </mxGeometry>
        </mxCell>
        <mxCell id="NLtxy-yFvtvTvt2Q45It-91" value="" style="endArrow=none;html=1;rounded=0;exitX=1;exitY=1;exitDx=0;exitDy=0;entryX=0.25;entryY=0;entryDx=0;entryDy=0;" parent="WIyWlLk6GJQsqaUBKTNV-1" source="19zakmdn4GK2tteWEvWS-68" target="vqfMq5YI1HX7amYcBREN-25" edge="1">
          <mxGeometry width="50" height="50" relative="1" as="geometry">
            <mxPoint x="1738" y="1645" as="sourcePoint" />
            <mxPoint x="1788" y="1595" as="targetPoint" />
          </mxGeometry>
        </mxCell>
        <mxCell id="NLtxy-yFvtvTvt2Q45It-92" value="" style="endArrow=none;html=1;rounded=0;exitX=1;exitY=0.5;exitDx=0;exitDy=0;entryX=0;entryY=0.25;entryDx=0;entryDy=0;" parent="WIyWlLk6GJQsqaUBKTNV-1" source="19zakmdn4GK2tteWEvWS-67" target="vqfMq5YI1HX7amYcBREN-25" edge="1">
          <mxGeometry width="50" height="50" relative="1" as="geometry">
            <mxPoint x="1738" y="1645" as="sourcePoint" />
            <mxPoint x="1788" y="1595" as="targetPoint" />
          </mxGeometry>
        </mxCell>
        <mxCell id="YOUJ4i2k81nkW5toDQfN-0" value="&lt;u&gt;Thu&lt;/u&gt;" style="ellipse;whiteSpace=wrap;html=1;" parent="WIyWlLk6GJQsqaUBKTNV-1" vertex="1">
          <mxGeometry x="3663" y="2068" width="99" height="44" as="geometry" />
        </mxCell>
        <mxCell id="YOUJ4i2k81nkW5toDQfN-1" value="" style="endArrow=none;html=1;rounded=0;entryX=0;entryY=0.5;entryDx=0;entryDy=0;exitX=1;exitY=0.5;exitDx=0;exitDy=0;" parent="WIyWlLk6GJQsqaUBKTNV-1" source="dsZPMlRTMaQKbJH8oH-I-3" target="YOUJ4i2k81nkW5toDQfN-0" edge="1">
          <mxGeometry width="50" height="50" relative="1" as="geometry">
            <mxPoint x="3487" y="2145" as="sourcePoint" />
            <mxPoint x="3119" y="2145" as="targetPoint" />
          </mxGeometry>
        </mxCell>
        <mxCell id="dsZPMlRTMaQKbJH8oH-I-3" value="&lt;b&gt;THUTRONGTUAN&lt;/b&gt;" style="rounded=0;whiteSpace=wrap;html=1;fontSize=16;" parent="WIyWlLk6GJQsqaUBKTNV-1" vertex="1">
          <mxGeometry x="3399" y="2123" width="175" height="60" as="geometry" />
        </mxCell>
        <mxCell id="dsZPMlRTMaQKbJH8oH-I-5" value="&lt;span style=&quot;font-size: 16px;&quot;&gt;&lt;b&gt;HocVao&lt;/b&gt;&lt;/span&gt;" style="rhombus;whiteSpace=wrap;html=1;spacing=2;" parent="WIyWlLk6GJQsqaUBKTNV-1" vertex="1">
          <mxGeometry x="3080" y="2090" width="110" height="80" as="geometry" />
        </mxCell>
        <mxCell id="dsZPMlRTMaQKbJH8oH-I-6" value="" style="endArrow=none;html=1;rounded=0;exitX=1;exitY=0.5;exitDx=0;exitDy=0;entryX=0;entryY=0.5;entryDx=0;entryDy=0;" parent="WIyWlLk6GJQsqaUBKTNV-1" source="dsZPMlRTMaQKbJH8oH-I-5" target="dsZPMlRTMaQKbJH8oH-I-3" edge="1">
          <mxGeometry width="50" height="50" relative="1" as="geometry">
            <mxPoint x="3245" y="2129" as="sourcePoint" />
            <mxPoint x="3295" y="2079" as="targetPoint" />
          </mxGeometry>
        </mxCell>
        <mxCell id="dsZPMlRTMaQKbJH8oH-I-7" value="" style="endArrow=none;html=1;rounded=0;exitX=0;exitY=0.5;exitDx=0;exitDy=0;entryX=0.75;entryY=1;entryDx=0;entryDy=0;shape=link;" parent="WIyWlLk6GJQsqaUBKTNV-1" source="dsZPMlRTMaQKbJH8oH-I-5" target="vqfMq5YI1HX7amYcBREN-20" edge="1">
          <mxGeometry width="50" height="50" relative="1" as="geometry">
            <mxPoint x="3245" y="2129" as="sourcePoint" />
            <mxPoint x="3295" y="2079" as="targetPoint" />
          </mxGeometry>
        </mxCell>
        <mxCell id="dsZPMlRTMaQKbJH8oH-I-9" value="&lt;font style=&quot;font-size: 20px;&quot;&gt;&lt;b&gt;n&lt;/b&gt;&lt;/font&gt;" style="text;html=1;align=center;verticalAlign=middle;whiteSpace=wrap;rounded=0;" parent="WIyWlLk6GJQsqaUBKTNV-1" vertex="1">
          <mxGeometry x="3014" y="2002" width="60" height="30" as="geometry" />
        </mxCell>
        <mxCell id="dsZPMlRTMaQKbJH8oH-I-10" value="&lt;font style=&quot;font-size: 20px;&quot;&gt;&lt;b&gt;m&lt;/b&gt;&lt;/font&gt;" style="text;html=1;align=center;verticalAlign=middle;whiteSpace=wrap;rounded=0;" parent="WIyWlLk6GJQsqaUBKTNV-1" vertex="1">
          <mxGeometry x="3267" y="2101" width="60" height="30" as="geometry" />
        </mxCell>
        <mxCell id="dsZPMlRTMaQKbJH8oH-I-11" value="&lt;b&gt;NGAYHOC&lt;/b&gt;" style="rounded=0;whiteSpace=wrap;html=1;fontSize=16;" parent="WIyWlLk6GJQsqaUBKTNV-1" vertex="1">
          <mxGeometry x="2629" y="1331" width="120" height="60" as="geometry" />
        </mxCell>
        <mxCell id="dsZPMlRTMaQKbJH8oH-I-12" value="NgayHoc" style="ellipse;whiteSpace=wrap;html=1;" parent="WIyWlLk6GJQsqaUBKTNV-1" vertex="1">
          <mxGeometry x="2629" y="1221" width="99" height="44" as="geometry" />
        </mxCell>
        <mxCell id="dsZPMlRTMaQKbJH8oH-I-13" value="" style="endArrow=none;html=1;rounded=0;entryX=0.5;entryY=1;entryDx=0;entryDy=0;exitX=0.5;exitY=0;exitDx=0;exitDy=0;" parent="WIyWlLk6GJQsqaUBKTNV-1" source="dsZPMlRTMaQKbJH8oH-I-11" target="dsZPMlRTMaQKbJH8oH-I-12" edge="1">
          <mxGeometry width="50" height="50" relative="1" as="geometry">
            <mxPoint x="2651" y="1447" as="sourcePoint" />
            <mxPoint x="2701" y="1397" as="targetPoint" />
          </mxGeometry>
        </mxCell>
        <mxCell id="dsZPMlRTMaQKbJH8oH-I-14" value="" style="endArrow=none;html=1;rounded=0;exitX=0.5;exitY=0;exitDx=0;exitDy=0;entryX=0.5;entryY=1;entryDx=0;entryDy=0;" parent="WIyWlLk6GJQsqaUBKTNV-1" source="vqfMq5YI1HX7amYcBREN-91" target="dsZPMlRTMaQKbJH8oH-I-11" edge="1">
          <mxGeometry width="50" height="50" relative="1" as="geometry">
            <mxPoint x="2651" y="1447" as="sourcePoint" />
            <mxPoint x="2701" y="1397" as="targetPoint" />
          </mxGeometry>
        </mxCell>
        <mxCell id="dsZPMlRTMaQKbJH8oH-I-15" value="&lt;font style=&quot;font-size: 20px;&quot;&gt;&lt;b&gt;n&lt;/b&gt;&lt;/font&gt;" style="text;html=1;align=center;verticalAlign=middle;whiteSpace=wrap;rounded=0;" parent="WIyWlLk6GJQsqaUBKTNV-1" vertex="1">
          <mxGeometry x="2684" y="1430" width="60" height="30" as="geometry" />
        </mxCell>
        <mxCell id="dsZPMlRTMaQKbJH8oH-I-16" value="&lt;b&gt;THONGBAO&lt;/b&gt;" style="rounded=0;whiteSpace=wrap;html=1;fontSize=16;" parent="WIyWlLk6GJQsqaUBKTNV-1" vertex="1">
          <mxGeometry x="2222" y="2123" width="120" height="60" as="geometry" />
        </mxCell>
        <mxCell id="dsZPMlRTMaQKbJH8oH-I-18" value="&lt;span style=&quot;font-size: 16px;&quot;&gt;&lt;b&gt;TBthuoc&lt;/b&gt;&lt;/span&gt;" style="rhombus;whiteSpace=wrap;html=1;spacing=2;" parent="WIyWlLk6GJQsqaUBKTNV-1" vertex="1">
          <mxGeometry x="1881" y="2123" width="187" height="80" as="geometry" />
        </mxCell>
        <mxCell id="dsZPMlRTMaQKbJH8oH-I-19" value="" style="endArrow=none;html=1;rounded=0;exitX=1;exitY=0.5;exitDx=0;exitDy=0;entryX=0;entryY=0.5;entryDx=0;entryDy=0;" parent="WIyWlLk6GJQsqaUBKTNV-1" source="vqfMq5YI1HX7amYcBREN-24" target="dsZPMlRTMaQKbJH8oH-I-18" edge="1">
          <mxGeometry width="50" height="50" relative="1" as="geometry">
            <mxPoint x="2013" y="2239" as="sourcePoint" />
            <mxPoint x="2063" y="2189" as="targetPoint" />
          </mxGeometry>
        </mxCell>
        <mxCell id="dsZPMlRTMaQKbJH8oH-I-20" value="" style="endArrow=none;html=1;rounded=0;exitX=1;exitY=0.5;exitDx=0;exitDy=0;entryX=0;entryY=0.5;entryDx=0;entryDy=0;shape=link;" parent="WIyWlLk6GJQsqaUBKTNV-1" source="dsZPMlRTMaQKbJH8oH-I-18" target="dsZPMlRTMaQKbJH8oH-I-16" edge="1">
          <mxGeometry width="50" height="50" relative="1" as="geometry">
            <mxPoint x="2013" y="2239" as="sourcePoint" />
            <mxPoint x="2063" y="2189" as="targetPoint" />
          </mxGeometry>
        </mxCell>
        <mxCell id="dsZPMlRTMaQKbJH8oH-I-21" value="&lt;span style=&quot;font-size: 16px;&quot;&gt;&lt;b&gt;TRUYENTIN&lt;/b&gt;&lt;/span&gt;" style="rhombus;whiteSpace=wrap;html=1;spacing=2;" parent="WIyWlLk6GJQsqaUBKTNV-1" vertex="1">
          <mxGeometry x="2519" y="2057" width="154" height="66" as="geometry" />
        </mxCell>
        <mxCell id="dsZPMlRTMaQKbJH8oH-I-22" value="" style="endArrow=none;html=1;rounded=0;exitX=1;exitY=0.5;exitDx=0;exitDy=0;entryX=0;entryY=0.5;entryDx=0;entryDy=0;shape=link;" parent="WIyWlLk6GJQsqaUBKTNV-1" source="dsZPMlRTMaQKbJH8oH-I-16" target="dsZPMlRTMaQKbJH8oH-I-21" edge="1">
          <mxGeometry width="50" height="50" relative="1" as="geometry">
            <mxPoint x="2145" y="2074" as="sourcePoint" />
            <mxPoint x="2195" y="2024" as="targetPoint" />
          </mxGeometry>
        </mxCell>
        <mxCell id="dsZPMlRTMaQKbJH8oH-I-23" value="" style="endArrow=none;html=1;rounded=0;exitX=1;exitY=0.5;exitDx=0;exitDy=0;entryX=0;entryY=1;entryDx=0;entryDy=0;" parent="WIyWlLk6GJQsqaUBKTNV-1" source="dsZPMlRTMaQKbJH8oH-I-21" target="vqfMq5YI1HX7amYcBREN-20" edge="1">
          <mxGeometry width="50" height="50" relative="1" as="geometry">
            <mxPoint x="2673" y="2074" as="sourcePoint" />
            <mxPoint x="2723" y="2024" as="targetPoint" />
          </mxGeometry>
        </mxCell>
        <mxCell id="dsZPMlRTMaQKbJH8oH-I-24" value="&lt;span style=&quot;font-size: 20px;&quot;&gt;&lt;b&gt;n&lt;/b&gt;&lt;/span&gt;&lt;span style=&quot;color: rgba(0, 0, 0, 0); font-family: monospace; font-size: 0px; text-align: start; text-wrap: nowrap;&quot;&gt;%3CmxGraphModel%3E%3Croot%3E%3CmxCell%20id%3D%220%22%2F%3E%3CmxCell%20id%3D%221%22%20parent%3D%220%22%2F%3E%3CmxCell%20id%3D%222%22%20value%3D%22%26lt%3Bfont%20style%3D%26quot%3Bfont-size%3A%2020px%3B%26quot%3B%26gt%3B%26lt%3Bb%26gt%3B1%26lt%3B%2Fb%26gt%3B%26lt%3B%2Ffont%26gt%3B%22%20style%3D%22text%3Bhtml%3D1%3Balign%3Dcenter%3BverticalAlign%3Dmiddle%3BwhiteSpace%3Dwrap%3Brounded%3D0%3B%22%20vertex%3D%221%22%20parent%3D%221%22%3E%3CmxGeometry%20x%3D%221997%22%20y%3D%222362%22%20width%3D%2260%22%20height%3D%2230%22%20as%3D%22geometry%22%2F%3E%3C%2FmxCell%3E%3C%2Froot%3E%3C%2FmxGraphModel%3E&lt;/span&gt;" style="text;html=1;align=center;verticalAlign=middle;whiteSpace=wrap;rounded=0;" parent="WIyWlLk6GJQsqaUBKTNV-1" vertex="1">
          <mxGeometry x="2101" y="2112" width="60" height="30" as="geometry" />
        </mxCell>
        <mxCell id="dsZPMlRTMaQKbJH8oH-I-25" value="&lt;span style=&quot;font-size: 20px;&quot;&gt;&lt;b&gt;1&lt;/b&gt;&lt;/span&gt;" style="text;html=1;align=center;verticalAlign=middle;whiteSpace=wrap;rounded=0;" parent="WIyWlLk6GJQsqaUBKTNV-1" vertex="1">
          <mxGeometry x="1771" y="2134" width="60" height="30" as="geometry" />
        </mxCell>
        <mxCell id="dsZPMlRTMaQKbJH8oH-I-26" value="&lt;span style=&quot;font-size: 20px;&quot;&gt;&lt;b&gt;n&lt;/b&gt;&lt;/span&gt;" style="text;html=1;align=center;verticalAlign=middle;whiteSpace=wrap;rounded=0;" parent="WIyWlLk6GJQsqaUBKTNV-1" vertex="1">
          <mxGeometry x="2398" y="2068" width="60" height="30" as="geometry" />
        </mxCell>
        <mxCell id="dsZPMlRTMaQKbJH8oH-I-27" value="&lt;span style=&quot;font-size: 20px;&quot;&gt;&lt;b&gt;m&lt;/b&gt;&lt;/span&gt;" style="text;html=1;align=center;verticalAlign=middle;whiteSpace=wrap;rounded=0;" parent="WIyWlLk6GJQsqaUBKTNV-1" vertex="1">
          <mxGeometry x="2695" y="1991" width="60" height="30" as="geometry" />
        </mxCell>
        <mxCell id="dsZPMlRTMaQKbJH8oH-I-28" value="&lt;u&gt;MaThongBao&lt;/u&gt;" style="ellipse;whiteSpace=wrap;html=1;" parent="WIyWlLk6GJQsqaUBKTNV-1" vertex="1">
          <mxGeometry x="2101" y="2200" width="99" height="44" as="geometry" />
        </mxCell>
        <mxCell id="dsZPMlRTMaQKbJH8oH-I-29" value="TieuDe" style="ellipse;whiteSpace=wrap;html=1;" parent="WIyWlLk6GJQsqaUBKTNV-1" vertex="1">
          <mxGeometry x="2189" y="2255" width="99" height="44" as="geometry" />
        </mxCell>
        <mxCell id="dsZPMlRTMaQKbJH8oH-I-30" value="NoiDung" style="ellipse;whiteSpace=wrap;html=1;" parent="WIyWlLk6GJQsqaUBKTNV-1" vertex="1">
          <mxGeometry x="2376" y="2200" width="99" height="44" as="geometry" />
        </mxCell>
        <mxCell id="dsZPMlRTMaQKbJH8oH-I-31" value="NgayGui&amp;nbsp;" style="ellipse;whiteSpace=wrap;html=1;" parent="WIyWlLk6GJQsqaUBKTNV-1" vertex="1">
          <mxGeometry x="2299" y="2255" width="99" height="44" as="geometry" />
        </mxCell>
        <mxCell id="dsZPMlRTMaQKbJH8oH-I-32" value="GioGui" style="ellipse;whiteSpace=wrap;html=1;" parent="WIyWlLk6GJQsqaUBKTNV-1" vertex="1">
          <mxGeometry x="2387" y="2145" width="99" height="44" as="geometry" />
        </mxCell>
        <mxCell id="dsZPMlRTMaQKbJH8oH-I-33" value="" style="endArrow=none;html=1;rounded=0;exitX=1;exitY=1;exitDx=0;exitDy=0;entryX=0;entryY=0.5;entryDx=0;entryDy=0;" parent="WIyWlLk6GJQsqaUBKTNV-1" source="dsZPMlRTMaQKbJH8oH-I-16" target="dsZPMlRTMaQKbJH8oH-I-32" edge="1">
          <mxGeometry width="50" height="50" relative="1" as="geometry">
            <mxPoint x="2409" y="2217" as="sourcePoint" />
            <mxPoint x="2459" y="2167" as="targetPoint" />
          </mxGeometry>
        </mxCell>
        <mxCell id="dsZPMlRTMaQKbJH8oH-I-34" value="" style="endArrow=none;html=1;rounded=0;exitX=0.75;exitY=1;exitDx=0;exitDy=0;entryX=0;entryY=0.5;entryDx=0;entryDy=0;" parent="WIyWlLk6GJQsqaUBKTNV-1" source="dsZPMlRTMaQKbJH8oH-I-16" target="dsZPMlRTMaQKbJH8oH-I-30" edge="1">
          <mxGeometry width="50" height="50" relative="1" as="geometry">
            <mxPoint x="2409" y="2217" as="sourcePoint" />
            <mxPoint x="2459" y="2167" as="targetPoint" />
          </mxGeometry>
        </mxCell>
        <mxCell id="dsZPMlRTMaQKbJH8oH-I-35" value="" style="endArrow=none;html=1;rounded=0;exitX=0.5;exitY=1;exitDx=0;exitDy=0;entryX=0.5;entryY=0;entryDx=0;entryDy=0;" parent="WIyWlLk6GJQsqaUBKTNV-1" source="dsZPMlRTMaQKbJH8oH-I-16" target="dsZPMlRTMaQKbJH8oH-I-31" edge="1">
          <mxGeometry width="50" height="50" relative="1" as="geometry">
            <mxPoint x="2409" y="2217" as="sourcePoint" />
            <mxPoint x="2459" y="2167" as="targetPoint" />
          </mxGeometry>
        </mxCell>
        <mxCell id="dsZPMlRTMaQKbJH8oH-I-36" value="" style="endArrow=none;html=1;rounded=0;exitX=0.25;exitY=1;exitDx=0;exitDy=0;entryX=0.5;entryY=0;entryDx=0;entryDy=0;" parent="WIyWlLk6GJQsqaUBKTNV-1" source="dsZPMlRTMaQKbJH8oH-I-16" target="dsZPMlRTMaQKbJH8oH-I-29" edge="1">
          <mxGeometry width="50" height="50" relative="1" as="geometry">
            <mxPoint x="2409" y="2217" as="sourcePoint" />
            <mxPoint x="2459" y="2167" as="targetPoint" />
          </mxGeometry>
        </mxCell>
        <mxCell id="dsZPMlRTMaQKbJH8oH-I-37" value="" style="endArrow=none;html=1;rounded=0;exitX=0;exitY=1;exitDx=0;exitDy=0;entryX=1;entryY=0;entryDx=0;entryDy=0;" parent="WIyWlLk6GJQsqaUBKTNV-1" source="dsZPMlRTMaQKbJH8oH-I-16" target="dsZPMlRTMaQKbJH8oH-I-28" edge="1">
          <mxGeometry width="50" height="50" relative="1" as="geometry">
            <mxPoint x="2409" y="2217" as="sourcePoint" />
            <mxPoint x="2459" y="2167" as="targetPoint" />
          </mxGeometry>
        </mxCell>
        <mxCell id="dsZPMlRTMaQKbJH8oH-I-38" value="HienDien" style="ellipse;whiteSpace=wrap;html=1;" parent="WIyWlLk6GJQsqaUBKTNV-1" vertex="1">
          <mxGeometry x="2838" y="1430" width="99" height="44" as="geometry" />
        </mxCell>
        <mxCell id="dsZPMlRTMaQKbJH8oH-I-39" value="" style="endArrow=none;html=1;rounded=0;entryX=1;entryY=0.5;entryDx=0;entryDy=0;exitX=0;exitY=0.5;exitDx=0;exitDy=0;" parent="WIyWlLk6GJQsqaUBKTNV-1" source="dsZPMlRTMaQKbJH8oH-I-38" target="vqfMq5YI1HX7amYcBREN-91" edge="1">
          <mxGeometry width="50" height="50" relative="1" as="geometry">
            <mxPoint x="2596" y="1733" as="sourcePoint" />
            <mxPoint x="2646" y="1683" as="targetPoint" />
          </mxGeometry>
        </mxCell>
        <mxCell id="dsZPMlRTMaQKbJH8oH-I-40" value="&lt;b&gt;QUYENNGUOIDUNG&lt;/b&gt;" style="rounded=0;whiteSpace=wrap;html=1;fontSize=16;" parent="WIyWlLk6GJQsqaUBKTNV-1" vertex="1">
          <mxGeometry x="1078" y="1727" width="165" height="60" as="geometry" />
        </mxCell>
        <mxCell id="dsZPMlRTMaQKbJH8oH-I-41" value="&lt;span style=&quot;font-size: 16px;&quot;&gt;&lt;b&gt;Thuoc&lt;/b&gt;&lt;/span&gt;" style="rhombus;whiteSpace=wrap;html=1;spacing=2;" parent="WIyWlLk6GJQsqaUBKTNV-1" vertex="1">
          <mxGeometry x="1386" y="1881" width="132" height="66" as="geometry" />
        </mxCell>
        <mxCell id="dsZPMlRTMaQKbJH8oH-I-42" value="" style="endArrow=none;html=1;rounded=0;exitX=1;exitY=0;exitDx=0;exitDy=0;entryX=0;entryY=0.5;entryDx=0;entryDy=0;shape=link;" parent="WIyWlLk6GJQsqaUBKTNV-1" source="dsZPMlRTMaQKbJH8oH-I-40" target="dsZPMlRTMaQKbJH8oH-I-41" edge="1">
          <mxGeometry width="50" height="50" relative="1" as="geometry">
            <mxPoint x="1485" y="1909" as="sourcePoint" />
            <mxPoint x="1535" y="1859" as="targetPoint" />
          </mxGeometry>
        </mxCell>
        <mxCell id="dsZPMlRTMaQKbJH8oH-I-43" value="&lt;font style=&quot;font-size: 20px;&quot;&gt;&lt;b&gt;n&lt;/b&gt;&lt;/font&gt;" style="text;html=1;align=center;verticalAlign=middle;whiteSpace=wrap;rounded=0;" parent="WIyWlLk6GJQsqaUBKTNV-1" vertex="1">
          <mxGeometry x="1518" y="1826" width="60" height="30" as="geometry" />
        </mxCell>
        <mxCell id="dsZPMlRTMaQKbJH8oH-I-44" value="&lt;font style=&quot;font-size: 20px;&quot;&gt;&lt;b&gt;1&lt;/b&gt;&lt;/font&gt;" style="text;html=1;align=center;verticalAlign=middle;whiteSpace=wrap;rounded=0;" parent="WIyWlLk6GJQsqaUBKTNV-1" vertex="1">
          <mxGeometry x="1276" y="1826" width="60" height="30" as="geometry" />
        </mxCell>
        <mxCell id="dsZPMlRTMaQKbJH8oH-I-45" value="&lt;u&gt;MaQuyen&lt;/u&gt;" style="ellipse;whiteSpace=wrap;html=1;" parent="WIyWlLk6GJQsqaUBKTNV-1" vertex="1">
          <mxGeometry x="1001" y="1639" width="99" height="44" as="geometry" />
        </mxCell>
        <mxCell id="dsZPMlRTMaQKbJH8oH-I-46" value="" style="endArrow=none;html=1;rounded=0;exitX=1;exitY=0.5;exitDx=0;exitDy=0;entryX=0.25;entryY=0;entryDx=0;entryDy=0;" parent="WIyWlLk6GJQsqaUBKTNV-1" source="dsZPMlRTMaQKbJH8oH-I-45" target="dsZPMlRTMaQKbJH8oH-I-40" edge="1">
          <mxGeometry width="50" height="50" relative="1" as="geometry">
            <mxPoint x="1540" y="1568" as="sourcePoint" />
            <mxPoint x="1590" y="1518" as="targetPoint" />
          </mxGeometry>
        </mxCell>
        <mxCell id="dsZPMlRTMaQKbJH8oH-I-48" value="TenQuyen" style="ellipse;whiteSpace=wrap;html=1;" parent="WIyWlLk6GJQsqaUBKTNV-1" vertex="1">
          <mxGeometry x="979" y="1837" width="99" height="44" as="geometry" />
        </mxCell>
        <mxCell id="dsZPMlRTMaQKbJH8oH-I-49" value="" style="endArrow=none;html=1;rounded=0;exitX=1;exitY=0.5;exitDx=0;exitDy=0;entryX=0.25;entryY=1;entryDx=0;entryDy=0;" parent="WIyWlLk6GJQsqaUBKTNV-1" source="dsZPMlRTMaQKbJH8oH-I-48" target="dsZPMlRTMaQKbJH8oH-I-40" edge="1">
          <mxGeometry width="50" height="50" relative="1" as="geometry">
            <mxPoint x="1243" y="1821" as="sourcePoint" />
            <mxPoint x="1293" y="1771" as="targetPoint" />
          </mxGeometry>
        </mxCell>
        <mxCell id="abJ8TaTrobIyJyHO8-u0-2" value="&lt;font style=&quot;font-size: 16px;&quot;&gt;TrangThaiDong&lt;/font&gt;&lt;div style=&quot;font-size: 16px;&quot;&gt;&lt;font style=&quot;font-size: 16px;&quot;&gt;HocPhi&lt;/font&gt;&lt;/div&gt;" style="ellipse;whiteSpace=wrap;html=1;" vertex="1" parent="WIyWlLk6GJQsqaUBKTNV-1">
          <mxGeometry x="2101" y="1155" width="120" height="80" as="geometry" />
        </mxCell>
        <mxCell id="abJ8TaTrobIyJyHO8-u0-3" value="" style="endArrow=none;html=1;rounded=0;exitX=0.5;exitY=0;exitDx=0;exitDy=0;entryX=0.5;entryY=1;entryDx=0;entryDy=0;" edge="1" parent="WIyWlLk6GJQsqaUBKTNV-1" source="vqfMq5YI1HX7amYcBREN-39" target="abJ8TaTrobIyJyHO8-u0-2">
          <mxGeometry width="50" height="50" relative="1" as="geometry">
            <mxPoint x="2409" y="1282" as="sourcePoint" />
            <mxPoint x="2459" y="1232" as="targetPoint" />
          </mxGeometry>
        </mxCell>
      </root>
    </mxGraphModel>
  </diagram>
</mxfile>
